<svg width="312" height="34" viewBox="0 0 312 34" fill="none" xmlns="http://www.w3.org/2000/svg">
<g filter="url(#filter0_d_31_592)">
<rect width="308" height="26" fill="#2D2D2D"/>
<path d="M47.812 11.182C47.7373 10.8927 47.6347 10.6267 47.504 10.384C47.3733 10.1413 47.2053 9.93133 47 9.754C46.7947 9.57667 46.552 9.44133 46.272 9.348C46.0013 9.24533 45.684 9.194 45.32 9.194C44.788 9.194 44.326 9.30133 43.934 9.516C43.5513 9.73067 43.2387 10.02 42.996 10.384C42.7533 10.7387 42.5713 11.1447 42.45 11.602C42.338 12.0593 42.282 12.526 42.282 13.002C42.282 13.478 42.338 13.9447 42.45 14.402C42.5713 14.8593 42.7533 15.27 42.996 15.634C43.2387 15.9887 43.5513 16.2733 43.934 16.488C44.326 16.7027 44.788 16.81 45.32 16.81C45.712 16.81 46.0573 16.7447 46.356 16.614C46.6547 16.474 46.9113 16.2873 47.126 16.054C47.3407 15.8113 47.5087 15.5313 47.63 15.214C47.7513 14.8967 47.8307 14.556 47.868 14.192H49.576C49.5387 14.7893 49.408 15.3353 49.184 15.83C48.9693 16.3247 48.6753 16.754 48.302 17.118C47.9287 17.4727 47.49 17.748 46.986 17.944C46.482 18.14 45.9267 18.238 45.32 18.238C44.5733 18.238 43.9013 18.1027 43.304 17.832C42.716 17.552 42.2167 17.174 41.806 16.698C41.3953 16.222 41.078 15.6667 40.854 15.032C40.6393 14.3973 40.532 13.7207 40.532 13.002C40.532 12.2927 40.6393 11.6207 40.854 10.986C41.078 10.3513 41.3953 9.796 41.806 9.32C42.2167 8.844 42.716 8.466 43.304 8.186C43.9013 7.906 44.5733 7.766 45.32 7.766C45.88 7.766 46.4073 7.84533 46.902 8.004C47.3967 8.15333 47.8307 8.37733 48.204 8.676C48.5867 8.96533 48.8947 9.32 49.128 9.74C49.3613 10.16 49.506 10.6407 49.562 11.182H47.812ZM57.2995 18H55.7315V16.992H55.7035C55.5075 17.356 55.2135 17.65 54.8215 17.874C54.4388 18.0887 54.0468 18.196 53.6455 18.196C52.6935 18.196 52.0028 17.9627 51.5735 17.496C51.1535 17.02 50.9435 16.306 50.9435 15.354V10.762H52.5395V15.2C52.5395 15.8347 52.6608 16.2827 52.9035 16.544C53.1462 16.8053 53.4868 16.936 53.9255 16.936C54.2615 16.936 54.5415 16.8847 54.7655 16.782C54.9895 16.6793 55.1715 16.544 55.3115 16.376C55.4515 16.1987 55.5495 15.9887 55.6055 15.746C55.6708 15.5033 55.7035 15.242 55.7035 14.962V10.762H57.2995V18ZM58.9826 10.762H60.4806V12.162H60.5086C60.5552 11.966 60.6439 11.7747 60.7746 11.588C60.9146 11.4013 61.0779 11.2333 61.2646 11.084C61.4606 10.9253 61.6752 10.7993 61.9086 10.706C62.1419 10.6127 62.3799 10.566 62.6226 10.566C62.8092 10.566 62.9352 10.5707 63.0006 10.58C63.0752 10.5893 63.1499 10.5987 63.2246 10.608V12.148C63.1126 12.1293 62.9959 12.1153 62.8746 12.106C62.7626 12.0873 62.6506 12.078 62.5386 12.078C62.2679 12.078 62.0112 12.134 61.7686 12.246C61.5352 12.3487 61.3299 12.5073 61.1526 12.722C60.9752 12.9273 60.8352 13.184 60.7326 13.492C60.6299 13.8 60.5786 14.1547 60.5786 14.556V18H58.9826V10.762ZM63.9045 10.762H65.4025V12.162H65.4305C65.4771 11.966 65.5658 11.7747 65.6965 11.588C65.8365 11.4013 65.9998 11.2333 66.1865 11.084C66.3825 10.9253 66.5971 10.7993 66.8305 10.706C67.0638 10.6127 67.3018 10.566 67.5445 10.566C67.7311 10.566 67.8571 10.5707 67.9225 10.58C67.9971 10.5893 68.0718 10.5987 68.1465 10.608V12.148C68.0345 12.1293 67.9178 12.1153 67.7965 12.106C67.6845 12.0873 67.5725 12.078 67.4605 12.078C67.1898 12.078 66.9331 12.134 66.6905 12.246C66.4571 12.3487 66.2518 12.5073 66.0745 12.722C65.8971 12.9273 65.7571 13.184 65.6545 13.492C65.5518 13.8 65.5005 14.1547 65.5005 14.556V18H63.9045V10.762ZM73.5502 13.744C73.5316 13.492 73.4756 13.2493 73.3822 13.016C73.2982 12.7827 73.1769 12.582 73.0182 12.414C72.8689 12.2367 72.6822 12.0967 72.4582 11.994C72.2436 11.882 72.0009 11.826 71.7302 11.826C71.4502 11.826 71.1936 11.8773 70.9602 11.98C70.7362 12.0733 70.5402 12.2087 70.3722 12.386C70.2136 12.554 70.0829 12.7547 69.9802 12.988C69.8869 13.2213 69.8356 13.4733 69.8262 13.744H73.5502ZM69.8262 14.794C69.8262 15.074 69.8636 15.3447 69.9382 15.606C70.0222 15.8673 70.1436 16.096 70.3022 16.292C70.4609 16.488 70.6616 16.6467 70.9042 16.768C71.1469 16.88 71.4362 16.936 71.7722 16.936C72.2389 16.936 72.6122 16.838 72.8922 16.642C73.1816 16.4367 73.3962 16.1333 73.5362 15.732H75.0482C74.9642 16.124 74.8196 16.474 74.6142 16.782C74.4089 17.09 74.1616 17.3513 73.8722 17.566C73.5829 17.7713 73.2562 17.9253 72.8922 18.028C72.5376 18.14 72.1642 18.196 71.7722 18.196C71.2029 18.196 70.6989 18.1027 70.2602 17.916C69.8216 17.7293 69.4482 17.468 69.1402 17.132C68.8416 16.796 68.6129 16.3947 68.4542 15.928C68.3049 15.4613 68.2302 14.948 68.2302 14.388C68.2302 13.8747 68.3096 13.3893 68.4682 12.932C68.6362 12.4653 68.8696 12.0593 69.1682 11.714C69.4762 11.3593 69.8449 11.0793 70.2742 10.874C70.7036 10.6687 71.1889 10.566 71.7302 10.566C72.2996 10.566 72.8082 10.6873 73.2562 10.93C73.7136 11.1633 74.0916 11.476 74.3902 11.868C74.6889 12.26 74.9036 12.7127 75.0342 13.226C75.1742 13.73 75.2116 14.2527 75.1462 14.794H69.8262ZM76.3595 10.762H77.8715V11.826L77.8995 11.854C78.1422 11.4527 78.4595 11.14 78.8515 10.916C79.2435 10.6827 79.6775 10.566 80.1535 10.566C80.9469 10.566 81.5722 10.7713 82.0295 11.182C82.4869 11.5927 82.7155 12.2087 82.7155 13.03V18H81.1195V13.45C81.1009 12.8807 80.9795 12.47 80.7555 12.218C80.5315 11.9567 80.1815 11.826 79.7055 11.826C79.4349 11.826 79.1922 11.8773 78.9775 11.98C78.7629 12.0733 78.5809 12.2087 78.4315 12.386C78.2822 12.554 78.1655 12.7547 78.0815 12.988C77.9975 13.2213 77.9555 13.4687 77.9555 13.73V18H76.3595V10.762ZM83.6706 10.762H84.8746V8.592H86.4706V10.762H87.9126V11.952H86.4706V15.816C86.4706 15.984 86.4753 16.1287 86.4846 16.25C86.5033 16.3713 86.5359 16.474 86.5826 16.558C86.6386 16.642 86.7179 16.7073 86.8206 16.754C86.9233 16.7913 87.0633 16.81 87.2406 16.81C87.3526 16.81 87.4646 16.81 87.5766 16.81C87.6886 16.8007 87.8006 16.782 87.9126 16.754V17.986C87.7353 18.0047 87.5626 18.0233 87.3946 18.042C87.2266 18.0607 87.0539 18.07 86.8766 18.07C86.4566 18.07 86.1159 18.0327 85.8546 17.958C85.6026 17.874 85.4019 17.7573 85.2526 17.608C85.1126 17.4493 85.0146 17.2533 84.9586 17.02C84.9119 16.7867 84.8839 16.5207 84.8746 16.222V11.952H83.6706V10.762ZM89.1027 8.004H90.6987V18H89.1027V8.004ZM91.6397 10.762H93.3897L95.2797 16.166H95.3077L97.1417 10.762H98.8077L95.9937 18.392C95.863 18.7187 95.7323 19.0313 95.6017 19.33C95.4803 19.6287 95.3263 19.89 95.1397 20.114C94.9623 20.3473 94.7383 20.5293 94.4677 20.66C94.197 20.8 93.8517 20.87 93.4317 20.87C93.0583 20.87 92.6897 20.842 92.3257 20.786V19.442C92.4563 19.4607 92.5823 19.4793 92.7037 19.498C92.825 19.526 92.951 19.54 93.0817 19.54C93.2683 19.54 93.4223 19.5167 93.5437 19.47C93.665 19.4233 93.763 19.3533 93.8377 19.26C93.9217 19.176 93.9917 19.0733 94.0477 18.952C94.1037 18.8307 94.155 18.6907 94.2017 18.532L94.3837 17.972L91.6397 10.762ZM103.636 8.004H105.232V9.516H103.636V8.004ZM103.636 10.762H105.232V18H103.636V10.762ZM106.971 10.762H108.483V11.826L108.511 11.854C108.754 11.4527 109.071 11.14 109.463 10.916C109.855 10.6827 110.289 10.566 110.765 10.566C111.558 10.566 112.184 10.7713 112.641 11.182C113.098 11.5927 113.327 12.2087 113.327 13.03V18H111.731V13.45C111.712 12.8807 111.591 12.47 111.367 12.218C111.143 11.9567 110.793 11.826 110.317 11.826C110.046 11.826 109.804 11.8773 109.589 11.98C109.374 12.0733 109.192 12.2087 109.043 12.386C108.894 12.554 108.777 12.7547 108.693 12.988C108.609 13.2213 108.567 13.4687 108.567 13.73V18H106.971V10.762ZM120.88 12.19H123.736C124.156 12.19 124.506 12.0733 124.786 11.84C125.066 11.5973 125.206 11.252 125.206 10.804C125.206 10.3 125.08 9.94533 124.828 9.74C124.576 9.53467 124.212 9.432 123.736 9.432H120.88V12.19ZM119.13 8.004H123.988C124.884 8.004 125.603 8.20933 126.144 8.62C126.686 9.03067 126.956 9.65133 126.956 10.482C126.956 10.986 126.83 11.42 126.578 11.784C126.336 12.1387 125.986 12.414 125.528 12.61V12.638C126.144 12.7687 126.611 13.0627 126.928 13.52C127.246 13.968 127.404 14.5327 127.404 15.214C127.404 15.606 127.334 15.9747 127.194 16.32C127.054 16.656 126.835 16.95 126.536 17.202C126.238 17.4447 125.855 17.6407 125.388 17.79C124.922 17.93 124.366 18 123.722 18H119.13V8.004ZM120.88 16.572H123.974C124.506 16.572 124.917 16.4367 125.206 16.166C125.505 15.886 125.654 15.494 125.654 14.99C125.654 14.4953 125.505 14.1173 125.206 13.856C124.917 13.5853 124.506 13.45 123.974 13.45H120.88V16.572ZM134.826 16.39C134.826 16.586 134.849 16.726 134.896 16.81C134.952 16.894 135.054 16.936 135.204 16.936C135.25 16.936 135.306 16.936 135.372 16.936C135.437 16.936 135.512 16.9267 135.596 16.908V18.014C135.54 18.0327 135.465 18.0513 135.372 18.07C135.288 18.098 135.199 18.1213 135.106 18.14C135.012 18.1587 134.919 18.1727 134.826 18.182C134.732 18.1913 134.653 18.196 134.588 18.196C134.261 18.196 133.99 18.1307 133.776 18C133.561 17.8693 133.421 17.6407 133.356 17.314C133.038 17.622 132.646 17.846 132.18 17.986C131.722 18.126 131.279 18.196 130.85 18.196C130.523 18.196 130.21 18.1493 129.912 18.056C129.613 17.972 129.347 17.846 129.114 17.678C128.89 17.5007 128.708 17.2813 128.568 17.02C128.437 16.7493 128.372 16.4367 128.372 16.082C128.372 15.634 128.451 15.27 128.61 14.99C128.778 14.71 128.992 14.4907 129.254 14.332C129.524 14.1733 129.823 14.0613 130.15 13.996C130.486 13.9213 130.822 13.8653 131.158 13.828C131.447 13.772 131.722 13.7347 131.984 13.716C132.245 13.688 132.474 13.646 132.67 13.59C132.875 13.534 133.034 13.45 133.146 13.338C133.267 13.2167 133.328 13.0393 133.328 12.806C133.328 12.6007 133.276 12.4327 133.174 12.302C133.08 12.1713 132.959 12.0733 132.81 12.008C132.67 11.9333 132.511 11.8867 132.334 11.868C132.156 11.84 131.988 11.826 131.83 11.826C131.382 11.826 131.013 11.9193 130.724 12.106C130.434 12.2927 130.271 12.582 130.234 12.974H128.638C128.666 12.5073 128.778 12.12 128.974 11.812C129.17 11.504 129.417 11.2567 129.716 11.07C130.024 10.8833 130.369 10.7527 130.752 10.678C131.134 10.6033 131.526 10.566 131.928 10.566C132.282 10.566 132.632 10.6033 132.978 10.678C133.323 10.7527 133.631 10.874 133.902 11.042C134.182 11.21 134.406 11.4293 134.574 11.7C134.742 11.9613 134.826 12.2833 134.826 12.666V16.39ZM133.23 14.374C132.987 14.5327 132.688 14.6307 132.334 14.668C131.979 14.696 131.624 14.7427 131.27 14.808C131.102 14.836 130.938 14.878 130.78 14.934C130.621 14.9807 130.481 15.0507 130.36 15.144C130.238 15.228 130.14 15.3447 130.066 15.494C130 15.634 129.968 15.8067 129.968 16.012C129.968 16.1893 130.019 16.3387 130.122 16.46C130.224 16.5813 130.346 16.6793 130.486 16.754C130.635 16.8193 130.794 16.866 130.962 16.894C131.139 16.922 131.298 16.936 131.438 16.936C131.615 16.936 131.806 16.9127 132.012 16.866C132.217 16.8193 132.408 16.74 132.586 16.628C132.772 16.516 132.926 16.376 133.048 16.208C133.169 16.0307 133.23 15.816 133.23 15.564V14.374ZM136.543 10.762H138.055V11.826L138.083 11.854C138.326 11.4527 138.643 11.14 139.035 10.916C139.427 10.6827 139.861 10.566 140.337 10.566C141.13 10.566 141.756 10.7713 142.213 11.182C142.67 11.5927 142.899 12.2087 142.899 13.03V18H141.303V13.45C141.284 12.8807 141.163 12.47 140.939 12.218C140.715 11.9567 140.365 11.826 139.889 11.826C139.618 11.826 139.376 11.8773 139.161 11.98C138.946 12.0733 138.764 12.2087 138.615 12.386C138.466 12.554 138.349 12.7547 138.265 12.988C138.181 13.2213 138.139 13.4687 138.139 13.73V18H136.543V10.762ZM151.274 17.622C151.274 18.714 150.966 19.526 150.35 20.058C149.744 20.5993 148.866 20.87 147.718 20.87C147.354 20.87 146.986 20.8327 146.612 20.758C146.248 20.6833 145.912 20.5573 145.604 20.38C145.306 20.2027 145.054 19.9693 144.848 19.68C144.643 19.3907 144.522 19.036 144.484 18.616H146.08C146.127 18.84 146.206 19.022 146.318 19.162C146.43 19.302 146.561 19.4093 146.71 19.484C146.869 19.568 147.042 19.6193 147.228 19.638C147.415 19.666 147.611 19.68 147.816 19.68C148.46 19.68 148.932 19.5213 149.23 19.204C149.529 18.8867 149.678 18.4293 149.678 17.832V16.726H149.65C149.426 17.1273 149.118 17.44 148.726 17.664C148.344 17.888 147.928 18 147.48 18C146.902 18 146.407 17.902 145.996 17.706C145.595 17.5007 145.259 17.2253 144.988 16.88C144.727 16.5253 144.536 16.1193 144.414 15.662C144.293 15.2047 144.232 14.7147 144.232 14.192C144.232 13.7067 144.307 13.2447 144.456 12.806C144.606 12.3673 144.82 11.9847 145.1 11.658C145.38 11.322 145.721 11.056 146.122 10.86C146.533 10.664 146.995 10.566 147.508 10.566C147.966 10.566 148.386 10.664 148.768 10.86C149.151 11.0467 149.445 11.3453 149.65 11.756H149.678V10.762H151.274V17.622ZM147.732 16.74C148.087 16.74 148.386 16.67 148.628 16.53C148.88 16.3807 149.081 16.1893 149.23 15.956C149.389 15.7133 149.501 15.4427 149.566 15.144C149.641 14.836 149.678 14.528 149.678 14.22C149.678 13.912 149.641 13.6133 149.566 13.324C149.492 13.0347 149.375 12.778 149.216 12.554C149.067 12.33 148.866 12.1527 148.614 12.022C148.372 11.8913 148.078 11.826 147.732 11.826C147.378 11.826 147.079 11.9007 146.836 12.05C146.594 12.1993 146.398 12.3953 146.248 12.638C146.099 12.8713 145.992 13.142 145.926 13.45C145.861 13.7487 145.828 14.0473 145.828 14.346C145.828 14.6447 145.866 14.9387 145.94 15.228C146.015 15.508 146.127 15.76 146.276 15.984C146.435 16.208 146.631 16.39 146.864 16.53C147.107 16.67 147.396 16.74 147.732 16.74ZM158.943 16.39C158.943 16.586 158.966 16.726 159.013 16.81C159.069 16.894 159.172 16.936 159.321 16.936C159.368 16.936 159.424 16.936 159.489 16.936C159.554 16.936 159.629 16.9267 159.713 16.908V18.014C159.657 18.0327 159.582 18.0513 159.489 18.07C159.405 18.098 159.316 18.1213 159.223 18.14C159.13 18.1587 159.036 18.1727 158.943 18.182C158.85 18.1913 158.77 18.196 158.705 18.196C158.378 18.196 158.108 18.1307 157.893 18C157.678 17.8693 157.538 17.6407 157.473 17.314C157.156 17.622 156.764 17.846 156.297 17.986C155.84 18.126 155.396 18.196 154.967 18.196C154.64 18.196 154.328 18.1493 154.029 18.056C153.73 17.972 153.464 17.846 153.231 17.678C153.007 17.5007 152.825 17.2813 152.685 17.02C152.554 16.7493 152.489 16.4367 152.489 16.082C152.489 15.634 152.568 15.27 152.727 14.99C152.895 14.71 153.11 14.4907 153.371 14.332C153.642 14.1733 153.94 14.0613 154.267 13.996C154.603 13.9213 154.939 13.8653 155.275 13.828C155.564 13.772 155.84 13.7347 156.101 13.716C156.362 13.688 156.591 13.646 156.787 13.59C156.992 13.534 157.151 13.45 157.263 13.338C157.384 13.2167 157.445 13.0393 157.445 12.806C157.445 12.6007 157.394 12.4327 157.291 12.302C157.198 12.1713 157.076 12.0733 156.927 12.008C156.787 11.9333 156.628 11.8867 156.451 11.868C156.274 11.84 156.106 11.826 155.947 11.826C155.499 11.826 155.13 11.9193 154.841 12.106C154.552 12.2927 154.388 12.582 154.351 12.974H152.755C152.783 12.5073 152.895 12.12 153.091 11.812C153.287 11.504 153.534 11.2567 153.833 11.07C154.141 10.8833 154.486 10.7527 154.869 10.678C155.252 10.6033 155.644 10.566 156.045 10.566C156.4 10.566 156.75 10.6033 157.095 10.678C157.44 10.7527 157.748 10.874 158.019 11.042C158.299 11.21 158.523 11.4293 158.691 11.7C158.859 11.9613 158.943 12.2833 158.943 12.666V16.39ZM157.347 14.374C157.104 14.5327 156.806 14.6307 156.451 14.668C156.096 14.696 155.742 14.7427 155.387 14.808C155.219 14.836 155.056 14.878 154.897 14.934C154.738 14.9807 154.598 15.0507 154.477 15.144C154.356 15.228 154.258 15.3447 154.183 15.494C154.118 15.634 154.085 15.8067 154.085 16.012C154.085 16.1893 154.136 16.3387 154.239 16.46C154.342 16.5813 154.463 16.6793 154.603 16.754C154.752 16.8193 154.911 16.866 155.079 16.894C155.256 16.922 155.415 16.936 155.555 16.936C155.732 16.936 155.924 16.9127 156.129 16.866C156.334 16.8193 156.526 16.74 156.703 16.628C156.89 16.516 157.044 16.376 157.165 16.208C157.286 16.0307 157.347 15.816 157.347 15.564V14.374ZM160.702 8.004H162.298V18H160.702V8.004ZM167.355 18.196C166.777 18.196 166.259 18.1027 165.801 17.916C165.353 17.72 164.971 17.454 164.653 17.118C164.345 16.782 164.107 16.3807 163.939 15.914C163.781 15.4473 163.701 14.934 163.701 14.374C163.701 13.8233 163.781 13.3147 163.939 12.848C164.107 12.3813 164.345 11.98 164.653 11.644C164.971 11.308 165.353 11.0467 165.801 10.86C166.259 10.664 166.777 10.566 167.355 10.566C167.934 10.566 168.447 10.664 168.895 10.86C169.353 11.0467 169.735 11.308 170.043 11.644C170.361 11.98 170.599 12.3813 170.757 12.848C170.925 13.3147 171.009 13.8233 171.009 14.374C171.009 14.934 170.925 15.4473 170.757 15.914C170.599 16.3807 170.361 16.782 170.043 17.118C169.735 17.454 169.353 17.72 168.895 17.916C168.447 18.1027 167.934 18.196 167.355 18.196ZM167.355 16.936C167.71 16.936 168.018 16.8613 168.279 16.712C168.541 16.5627 168.755 16.3667 168.923 16.124C169.091 15.8813 169.213 15.6107 169.287 15.312C169.371 15.004 169.413 14.6913 169.413 14.374C169.413 14.066 169.371 13.758 169.287 13.45C169.213 13.142 169.091 12.8713 168.923 12.638C168.755 12.3953 168.541 12.1993 168.279 12.05C168.018 11.9007 167.71 11.826 167.355 11.826C167.001 11.826 166.693 11.9007 166.431 12.05C166.17 12.1993 165.955 12.3953 165.787 12.638C165.619 12.8713 165.493 13.142 165.409 13.45C165.335 13.758 165.297 14.066 165.297 14.374C165.297 14.6913 165.335 15.004 165.409 15.312C165.493 15.6107 165.619 15.8813 165.787 16.124C165.955 16.3667 166.17 16.5627 166.431 16.712C166.693 16.8613 167.001 16.936 167.355 16.936ZM172.336 10.762H173.834V12.162H173.862C173.909 11.966 173.997 11.7747 174.128 11.588C174.268 11.4013 174.431 11.2333 174.618 11.084C174.814 10.9253 175.029 10.7993 175.262 10.706C175.495 10.6127 175.733 10.566 175.976 10.566C176.163 10.566 176.289 10.5707 176.354 10.58C176.429 10.5893 176.503 10.5987 176.578 10.608V12.148C176.466 12.1293 176.349 12.1153 176.228 12.106C176.116 12.0873 176.004 12.078 175.892 12.078C175.621 12.078 175.365 12.134 175.122 12.246C174.889 12.3487 174.683 12.5073 174.506 12.722C174.329 12.9273 174.189 13.184 174.086 13.492C173.983 13.8 173.932 14.1547 173.932 14.556V18H172.336V10.762ZM181.982 13.744C181.963 13.492 181.907 13.2493 181.814 13.016C181.73 12.7827 181.609 12.582 181.45 12.414C181.301 12.2367 181.114 12.0967 180.89 11.994C180.675 11.882 180.433 11.826 180.162 11.826C179.882 11.826 179.625 11.8773 179.392 11.98C179.168 12.0733 178.972 12.2087 178.804 12.386C178.645 12.554 178.515 12.7547 178.412 12.988C178.319 13.2213 178.267 13.4733 178.258 13.744H181.982ZM178.258 14.794C178.258 15.074 178.295 15.3447 178.37 15.606C178.454 15.8673 178.575 16.096 178.734 16.292C178.893 16.488 179.093 16.6467 179.336 16.768C179.579 16.88 179.868 16.936 180.204 16.936C180.671 16.936 181.044 16.838 181.324 16.642C181.613 16.4367 181.828 16.1333 181.968 15.732H183.48C183.396 16.124 183.251 16.474 183.046 16.782C182.841 17.09 182.593 17.3513 182.304 17.566C182.015 17.7713 181.688 17.9253 181.324 18.028C180.969 18.14 180.596 18.196 180.204 18.196C179.635 18.196 179.131 18.1027 178.692 17.916C178.253 17.7293 177.88 17.468 177.572 17.132C177.273 16.796 177.045 16.3947 176.886 15.928C176.737 15.4613 176.662 14.948 176.662 14.388C176.662 13.8747 176.741 13.3893 176.9 12.932C177.068 12.4653 177.301 12.0593 177.6 11.714C177.908 11.3593 178.277 11.0793 178.706 10.874C179.135 10.6687 179.621 10.566 180.162 10.566C180.731 10.566 181.24 10.6873 181.688 10.93C182.145 11.1633 182.523 11.476 182.822 11.868C183.121 12.26 183.335 12.7127 183.466 13.226C183.606 13.73 183.643 14.2527 183.578 14.794H178.258ZM194.75 16.39C194.75 16.586 194.773 16.726 194.82 16.81C194.876 16.894 194.978 16.936 195.128 16.936C195.174 16.936 195.23 16.936 195.296 16.936C195.361 16.936 195.436 16.9267 195.52 16.908V18.014C195.464 18.0327 195.389 18.0513 195.296 18.07C195.212 18.098 195.123 18.1213 195.03 18.14C194.936 18.1587 194.843 18.1727 194.75 18.182C194.656 18.1913 194.577 18.196 194.512 18.196C194.185 18.196 193.914 18.1307 193.7 18C193.485 17.8693 193.345 17.6407 193.28 17.314C192.962 17.622 192.57 17.846 192.104 17.986C191.646 18.126 191.203 18.196 190.774 18.196C190.447 18.196 190.134 18.1493 189.836 18.056C189.537 17.972 189.271 17.846 189.038 17.678C188.814 17.5007 188.632 17.2813 188.492 17.02C188.361 16.7493 188.296 16.4367 188.296 16.082C188.296 15.634 188.375 15.27 188.534 14.99C188.702 14.71 188.916 14.4907 189.178 14.332C189.448 14.1733 189.747 14.0613 190.074 13.996C190.41 13.9213 190.746 13.8653 191.082 13.828C191.371 13.772 191.646 13.7347 191.908 13.716C192.169 13.688 192.398 13.646 192.594 13.59C192.799 13.534 192.958 13.45 193.07 13.338C193.191 13.2167 193.252 13.0393 193.252 12.806C193.252 12.6007 193.2 12.4327 193.098 12.302C193.004 12.1713 192.883 12.0733 192.734 12.008C192.594 11.9333 192.435 11.8867 192.258 11.868C192.08 11.84 191.912 11.826 191.754 11.826C191.306 11.826 190.937 11.9193 190.648 12.106C190.358 12.2927 190.195 12.582 190.158 12.974H188.562C188.59 12.5073 188.702 12.12 188.898 11.812C189.094 11.504 189.341 11.2567 189.64 11.07C189.948 10.8833 190.293 10.7527 190.676 10.678C191.058 10.6033 191.45 10.566 191.852 10.566C192.206 10.566 192.556 10.6033 192.902 10.678C193.247 10.7527 193.555 10.874 193.826 11.042C194.106 11.21 194.33 11.4293 194.498 11.7C194.666 11.9613 194.75 12.2833 194.75 12.666V16.39ZM193.154 14.374C192.911 14.5327 192.612 14.6307 192.258 14.668C191.903 14.696 191.548 14.7427 191.194 14.808C191.026 14.836 190.862 14.878 190.704 14.934C190.545 14.9807 190.405 15.0507 190.284 15.144C190.162 15.228 190.064 15.3447 189.99 15.494C189.924 15.634 189.892 15.8067 189.892 16.012C189.892 16.1893 189.943 16.3387 190.046 16.46C190.148 16.5813 190.27 16.6793 190.41 16.754C190.559 16.8193 190.718 16.866 190.886 16.894C191.063 16.922 191.222 16.936 191.362 16.936C191.539 16.936 191.73 16.9127 191.936 16.866C192.141 16.8193 192.332 16.74 192.51 16.628C192.696 16.516 192.85 16.376 192.972 16.208C193.093 16.0307 193.154 15.816 193.154 15.564V14.374ZM196.467 10.762H197.979V11.826L198.007 11.854C198.25 11.4527 198.567 11.14 198.959 10.916C199.351 10.6827 199.785 10.566 200.261 10.566C201.054 10.566 201.68 10.7713 202.137 11.182C202.594 11.5927 202.823 12.2087 202.823 13.03V18H201.227V13.45C201.208 12.8807 201.087 12.47 200.863 12.218C200.639 11.9567 200.289 11.826 199.813 11.826C199.542 11.826 199.3 11.8773 199.085 11.98C198.87 12.0733 198.688 12.2087 198.539 12.386C198.39 12.554 198.273 12.7547 198.189 12.988C198.105 13.2213 198.063 13.4687 198.063 13.73V18H196.467V10.762ZM211.324 18H209.812V17.02H209.784C209.569 17.44 209.257 17.7433 208.846 17.93C208.435 18.1073 208.001 18.196 207.544 18.196C206.975 18.196 206.475 18.098 206.046 17.902C205.626 17.6967 205.276 17.4213 204.996 17.076C204.716 16.7307 204.506 16.3247 204.366 15.858C204.226 15.382 204.156 14.8733 204.156 14.332C204.156 13.6787 204.245 13.114 204.422 12.638C204.599 12.162 204.833 11.77 205.122 11.462C205.421 11.154 205.757 10.93 206.13 10.79C206.513 10.6407 206.9 10.566 207.292 10.566C207.516 10.566 207.745 10.5893 207.978 10.636C208.211 10.6733 208.435 10.7387 208.65 10.832C208.865 10.9253 209.061 11.0467 209.238 11.196C209.425 11.336 209.579 11.504 209.7 11.7H209.728V8.004H211.324V18ZM205.752 14.458C205.752 14.766 205.789 15.0693 205.864 15.368C205.948 15.6667 206.069 15.9327 206.228 16.166C206.396 16.3993 206.606 16.586 206.858 16.726C207.11 16.866 207.409 16.936 207.754 16.936C208.109 16.936 208.412 16.8613 208.664 16.712C208.925 16.5627 209.135 16.3667 209.294 16.124C209.462 15.8813 209.583 15.6107 209.658 15.312C209.742 15.004 209.784 14.6913 209.784 14.374C209.784 13.5713 209.602 12.946 209.238 12.498C208.883 12.05 208.398 11.826 207.782 11.826C207.409 11.826 207.091 11.9053 206.83 12.064C206.578 12.2133 206.368 12.414 206.2 12.666C206.041 12.9087 205.925 13.1887 205.85 13.506C205.785 13.814 205.752 14.1313 205.752 14.458ZM217.157 8.004H219.621L222.379 15.83H222.407L225.095 8.004H227.531V18H225.865V10.286H225.837L223.065 18H221.623L218.851 10.286H218.823V18H217.157V8.004ZM228.605 10.762H230.355L232.245 16.166H232.273L234.107 10.762H235.773L232.959 18.392C232.828 18.7187 232.697 19.0313 232.567 19.33C232.445 19.6287 232.291 19.89 232.105 20.114C231.927 20.3473 231.703 20.5293 231.433 20.66C231.162 20.8 230.817 20.87 230.397 20.87C230.023 20.87 229.655 20.842 229.291 20.786V19.442C229.421 19.4607 229.547 19.4793 229.669 19.498C229.79 19.526 229.916 19.54 230.047 19.54C230.233 19.54 230.387 19.5167 230.509 19.47C230.63 19.4233 230.728 19.3533 230.803 19.26C230.887 19.176 230.957 19.0733 231.013 18.952C231.069 18.8307 231.12 18.6907 231.167 18.532L231.349 17.972L228.605 10.762ZM237.866 15.676C237.913 16.1427 238.09 16.4693 238.398 16.656C238.706 16.8427 239.075 16.936 239.504 16.936C239.654 16.936 239.822 16.9267 240.008 16.908C240.204 16.88 240.386 16.8333 240.554 16.768C240.722 16.7027 240.858 16.6093 240.96 16.488C241.072 16.3573 241.124 16.1893 241.114 15.984C241.105 15.7787 241.03 15.6107 240.89 15.48C240.75 15.3493 240.568 15.2467 240.344 15.172C240.13 15.088 239.882 15.018 239.602 14.962C239.322 14.906 239.038 14.8453 238.748 14.78C238.45 14.7147 238.16 14.6353 237.88 14.542C237.61 14.4487 237.362 14.3227 237.138 14.164C236.924 14.0053 236.751 13.8047 236.62 13.562C236.49 13.31 236.424 13.002 236.424 12.638C236.424 12.246 236.518 11.9193 236.704 11.658C236.9 11.3873 237.143 11.1727 237.432 11.014C237.731 10.846 238.058 10.7293 238.412 10.664C238.776 10.5987 239.122 10.566 239.448 10.566C239.822 10.566 240.176 10.608 240.512 10.692C240.858 10.7667 241.166 10.8927 241.436 11.07C241.716 11.2473 241.945 11.4807 242.122 11.77C242.309 12.05 242.426 12.3907 242.472 12.792H240.806C240.732 12.4093 240.554 12.1527 240.274 12.022C240.004 11.8913 239.691 11.826 239.336 11.826C239.224 11.826 239.089 11.8353 238.93 11.854C238.781 11.8727 238.636 11.91 238.496 11.966C238.366 12.0127 238.254 12.0873 238.16 12.19C238.067 12.2833 238.02 12.4093 238.02 12.568C238.02 12.764 238.086 12.9227 238.216 13.044C238.356 13.1653 238.534 13.268 238.748 13.352C238.972 13.4267 239.224 13.492 239.504 13.548C239.784 13.604 240.074 13.6647 240.372 13.73C240.662 13.7953 240.946 13.8747 241.226 13.968C241.506 14.0613 241.754 14.1873 241.968 14.346C242.192 14.5047 242.37 14.7053 242.5 14.948C242.64 15.1907 242.71 15.4893 242.71 15.844C242.71 16.2733 242.612 16.6373 242.416 16.936C242.22 17.2347 241.964 17.4773 241.646 17.664C241.338 17.8507 240.993 17.986 240.61 18.07C240.228 18.154 239.85 18.196 239.476 18.196C239.019 18.196 238.594 18.1447 238.202 18.042C237.82 17.9393 237.484 17.7853 237.194 17.58C236.914 17.3653 236.69 17.104 236.522 16.796C236.364 16.4787 236.28 16.1053 236.27 15.676H237.866ZM247.24 18.196C246.661 18.196 246.143 18.1027 245.686 17.916C245.238 17.72 244.855 17.454 244.538 17.118C244.23 16.782 243.992 16.3807 243.824 15.914C243.665 15.4473 243.586 14.934 243.586 14.374C243.586 13.8233 243.665 13.3147 243.824 12.848C243.992 12.3813 244.23 11.98 244.538 11.644C244.855 11.308 245.238 11.0467 245.686 10.86C246.143 10.664 246.661 10.566 247.24 10.566C247.819 10.566 248.332 10.664 248.78 10.86C249.237 11.0467 249.62 11.308 249.928 11.644C250.245 11.98 250.483 12.3813 250.642 12.848C250.81 13.3147 250.894 13.8233 250.894 14.374C250.894 14.934 250.81 15.4473 250.642 15.914C250.483 16.3807 250.245 16.782 249.928 17.118C249.62 17.454 249.237 17.72 248.78 17.916C248.332 18.1027 247.819 18.196 247.24 18.196ZM247.24 16.936C247.595 16.936 247.903 16.8613 248.164 16.712C248.425 16.5627 248.64 16.3667 248.808 16.124C248.976 15.8813 249.097 15.6107 249.172 15.312C249.256 15.004 249.298 14.6913 249.298 14.374C249.298 14.066 249.256 13.758 249.172 13.45C249.097 13.142 248.976 12.8713 248.808 12.638C248.64 12.3953 248.425 12.1993 248.164 12.05C247.903 11.9007 247.595 11.826 247.24 11.826C246.885 11.826 246.577 11.9007 246.316 12.05C246.055 12.1993 245.84 12.3953 245.672 12.638C245.504 12.8713 245.378 13.142 245.294 13.45C245.219 13.758 245.182 14.066 245.182 14.374C245.182 14.6913 245.219 15.004 245.294 15.312C245.378 15.6107 245.504 15.8813 245.672 16.124C245.84 16.3667 246.055 16.5627 246.316 16.712C246.577 16.8613 246.885 16.936 247.24 16.936ZM252.221 10.762H253.719V12.162H253.747C253.794 11.966 253.882 11.7747 254.013 11.588C254.153 11.4013 254.316 11.2333 254.503 11.084C254.699 10.9253 254.914 10.7993 255.147 10.706C255.38 10.6127 255.618 10.566 255.861 10.566C256.048 10.566 256.174 10.5707 256.239 10.58C256.314 10.5893 256.388 10.5987 256.463 10.608V12.148C256.351 12.1293 256.234 12.1153 256.113 12.106C256.001 12.0873 255.889 12.078 255.777 12.078C255.506 12.078 255.25 12.134 255.007 12.246C254.774 12.3487 254.568 12.5073 254.391 12.722C254.214 12.9273 254.074 13.184 253.971 13.492C253.868 13.8 253.817 14.1547 253.817 14.556V18H252.221V10.762ZM261.867 13.744C261.848 13.492 261.792 13.2493 261.699 13.016C261.615 12.7827 261.493 12.582 261.335 12.414C261.185 12.2367 260.999 12.0967 260.775 11.994C260.56 11.882 260.317 11.826 260.047 11.826C259.767 11.826 259.51 11.8773 259.277 11.98C259.053 12.0733 258.857 12.2087 258.689 12.386C258.53 12.554 258.399 12.7547 258.297 12.988C258.203 13.2213 258.152 13.4733 258.143 13.744H261.867ZM258.143 14.794C258.143 15.074 258.18 15.3447 258.255 15.606C258.339 15.8673 258.46 16.096 258.619 16.292C258.777 16.488 258.978 16.6467 259.221 16.768C259.463 16.88 259.753 16.936 260.089 16.936C260.555 16.936 260.929 16.838 261.209 16.642C261.498 16.4367 261.713 16.1333 261.853 15.732H263.365C263.281 16.124 263.136 16.474 262.931 16.782C262.725 17.09 262.478 17.3513 262.189 17.566C261.899 17.7713 261.573 17.9253 261.209 18.028C260.854 18.14 260.481 18.196 260.089 18.196C259.519 18.196 259.015 18.1027 258.577 17.916C258.138 17.7293 257.765 17.468 257.457 17.132C257.158 16.796 256.929 16.3947 256.771 15.928C256.621 15.4613 256.547 14.948 256.547 14.388C256.547 13.8747 256.626 13.3893 256.785 12.932C256.953 12.4653 257.186 12.0593 257.485 11.714C257.793 11.3593 258.161 11.0793 258.591 10.874C259.02 10.6687 259.505 10.566 260.047 10.566C260.616 10.566 261.125 10.6873 261.573 10.93C262.03 11.1633 262.408 11.476 262.707 11.868C263.005 12.26 263.22 12.7127 263.351 13.226C263.491 13.73 263.528 14.2527 263.463 14.794H258.143ZM271.89 18.196C271.312 18.196 270.794 18.1027 270.336 17.916C269.888 17.72 269.506 17.454 269.188 17.118C268.88 16.782 268.642 16.3807 268.474 15.914C268.316 15.4473 268.236 14.934 268.236 14.374C268.236 13.8233 268.316 13.3147 268.474 12.848C268.642 12.3813 268.88 11.98 269.188 11.644C269.506 11.308 269.888 11.0467 270.336 10.86C270.794 10.664 271.312 10.566 271.89 10.566C272.469 10.566 272.982 10.664 273.43 10.86C273.888 11.0467 274.27 11.308 274.578 11.644C274.896 11.98 275.134 12.3813 275.292 12.848C275.46 13.3147 275.544 13.8233 275.544 14.374C275.544 14.934 275.46 15.4473 275.292 15.914C275.134 16.3807 274.896 16.782 274.578 17.118C274.27 17.454 273.888 17.72 273.43 17.916C272.982 18.1027 272.469 18.196 271.89 18.196ZM271.89 16.936C272.245 16.936 272.553 16.8613 272.814 16.712C273.076 16.5627 273.29 16.3667 273.458 16.124C273.626 15.8813 273.748 15.6107 273.822 15.312C273.906 15.004 273.948 14.6913 273.948 14.374C273.948 14.066 273.906 13.758 273.822 13.45C273.748 13.142 273.626 12.8713 273.458 12.638C273.29 12.3953 273.076 12.1993 272.814 12.05C272.553 11.9007 272.245 11.826 271.89 11.826C271.536 11.826 271.228 11.9007 270.966 12.05C270.705 12.1993 270.49 12.3953 270.322 12.638C270.154 12.8713 270.028 13.142 269.944 13.45C269.87 13.758 269.832 14.066 269.832 14.374C269.832 14.6913 269.87 15.004 269.944 15.312C270.028 15.6107 270.154 15.8813 270.322 16.124C270.49 16.3667 270.705 16.5627 270.966 16.712C271.228 16.8613 271.536 16.936 271.89 16.936ZM276.871 10.762H278.383V11.826L278.411 11.854C278.654 11.4527 278.971 11.14 279.363 10.916C279.755 10.6827 280.189 10.566 280.665 10.566C281.459 10.566 282.084 10.7713 282.541 11.182C282.999 11.5927 283.227 12.2087 283.227 13.03V18H281.631V13.45C281.613 12.8807 281.491 12.47 281.267 12.218C281.043 11.9567 280.693 11.826 280.217 11.826C279.947 11.826 279.704 11.8773 279.489 11.98C279.275 12.0733 279.093 12.2087 278.943 12.386C278.794 12.554 278.677 12.7547 278.593 12.988C278.509 13.2213 278.467 13.4687 278.467 13.73V18H276.871V10.762ZM284.952 8.004H286.548V18H284.952V8.004ZM287.489 10.762H289.239L291.129 16.166H291.157L292.991 10.762H294.657L291.843 18.392C291.713 18.7187 291.582 19.0313 291.451 19.33C291.33 19.6287 291.176 19.89 290.989 20.114C290.812 20.3473 290.588 20.5293 290.317 20.66C290.047 20.8 289.701 20.87 289.281 20.87C288.908 20.87 288.539 20.842 288.175 20.786V19.442C288.306 19.4607 288.432 19.4793 288.553 19.498C288.675 19.526 288.801 19.54 288.931 19.54C289.118 19.54 289.272 19.5167 289.393 19.47C289.515 19.4233 289.613 19.3533 289.687 19.26C289.771 19.176 289.841 19.0733 289.897 18.952C289.953 18.8307 290.005 18.6907 290.051 18.532L290.233 17.972L287.489 10.762ZM294.388 16.11H296.334V18H294.388V16.11Z" fill="#E9E9E9"/>
</g>
<defs>
<filter id="filter0_d_31_592" x="-4" y="0" width="316" height="34" filterUnits="userSpaceOnUse" color-interpolation-filters="sRGB">
<feFlood flood-opacity="0" result="BackgroundImageFix"/>
<feColorMatrix in="SourceAlpha" type="matrix" values="0 0 0 0 0 0 0 0 0 0 0 0 0 0 0 0 0 0 127 0" result="hardAlpha"/>
<feOffset dy="4"/>
<feGaussianBlur stdDeviation="2"/>
<feComposite in2="hardAlpha" operator="out"/>
<feColorMatrix type="matrix" values="0 0 0 0 0 0 0 0 0 0 0 0 0 0 0 0 0 0 0.25 0"/>
<feBlend mode="normal" in2="BackgroundImageFix" result="effect1_dropShadow_31_592"/>
<feBlend mode="normal" in="SourceGraphic" in2="effect1_dropShadow_31_592" result="shape"/>
</filter>
</defs>
</svg>
