<svg width="263" height="50" viewBox="0 0 263 50" fill="none" xmlns="http://www.w3.org/2000/svg">
<g clip-path="url(#clip0_41_593)">
<path fill-rule="evenodd" clip-rule="evenodd" d="M0 16C0 8.8203 5.8203 3 13 3H31C38.1797 3 44 8.8203 44 16V34C44 41.1797 38.1797 47 31 47H13C5.8203 47 0 41.1797 0 34V16ZM27.3469 29.1697L13.4506 33.4906C11.4703 34.1074 9.38061 33.6342 7.85713 32.2275C6.33365 30.8207 5.69785 28.7748 6.15549 26.7543L9.36597 12.5566C9.63015 11.3842 10.7937 10.6489 11.9632 10.9139C13.1327 11.1789 13.868 12.3425 13.603 13.512L10.3985 27.7079C10.2381 28.4139 10.6319 28.8685 10.8091 29.0337C10.9854 29.1958 11.4705 29.5528 12.1617 29.3393L26.058 25.0184C27.2057 24.6627 28.4223 25.3019 28.7781 26.4496C29.1338 27.5973 28.4946 28.814 27.3469 29.1697ZM29.8748 16.1399L15.9343 20.3087L15.9314 20.3096C14.7832 20.6525 14.1303 21.8667 14.4732 23.0149C14.8162 24.163 16.0274 24.8168 17.1785 24.473L31.1189 20.3042C31.8119 20.0966 32.2948 20.4575 32.469 20.6235C32.6463 20.7886 33.0349 21.2479 32.8677 21.9526L29.5066 36.11C29.2279 37.277 29.9521 38.447 31.1191 38.7257C32.2861 39.0044 33.4561 38.2801 33.7348 37.1132L37.096 22.9558C37.5741 20.939 36.9592 18.8871 35.4531 17.4624C33.9449 16.0414 31.8619 15.547 29.8748 16.1399Z" fill="#F4DE1B"/>
</g>
<path d="M60.4844 13.6562V32.4062H69.3594V36H56.3438V13.6562H60.4844ZM76.7969 24.7656C76.7969 29.9635 79.1042 32.5625 83.7188 32.5625C88.2188 32.5625 90.4688 29.9635 90.4688 24.7656C90.4688 19.651 88.2188 17.0938 83.7188 17.0938C79.1042 17.0938 76.7969 19.651 76.7969 24.7656ZM72.5 24.8594C72.5 17.2865 76.2396 13.5 83.7188 13.5C91.0833 13.5 94.7656 17.2865 94.7656 24.8594C94.7656 32.3906 91.0833 36.1562 83.7188 36.1562C76.5729 36.1562 72.8333 32.3906 72.5 24.8594ZM100.984 36H96.7344L106.219 13.6562H110.672L120.359 36H115.906L113.359 29.9062H105.938L107.359 26.3125H111.859L108.344 17.9219L100.984 36ZM123.094 36V13.6562H127.234L139.031 29.9375V13.6562H143.016V36H138.875L127.078 19.375V36H123.094ZM157.047 36H152.797L162.281 13.6562H166.734L176.422 36H171.969L169.422 29.9062H162L163.422 26.3125H167.922L164.406 17.9219L157.047 36ZM178.766 35.0625V31.3125C181.005 32.1458 183.536 32.5625 186.359 32.5625C189.786 32.5625 191.5 31.4167 191.5 29.125C191.5 27.4583 190.448 26.625 188.344 26.625H184.844C180.271 26.625 177.984 24.5417 177.984 20.375C177.984 15.7917 181.24 13.5 187.75 13.5C190.25 13.5 192.62 13.8646 194.859 14.5938V18.3438C192.62 17.5104 190.25 17.0938 187.75 17.0938C184 17.0938 182.125 18.1875 182.125 20.375C182.125 22.0417 183.031 22.875 184.844 22.875H188.344C193.208 22.875 195.641 24.9583 195.641 29.125C195.641 33.8125 192.547 36.1562 186.359 36.1562C183.536 36.1562 181.005 35.7917 178.766 35.0625ZM198.766 35.0625V31.3125C201.005 32.1458 203.536 32.5625 206.359 32.5625C209.786 32.5625 211.5 31.4167 211.5 29.125C211.5 27.4583 210.448 26.625 208.344 26.625H204.844C200.271 26.625 197.984 24.5417 197.984 20.375C197.984 15.7917 201.24 13.5 207.75 13.5C210.25 13.5 212.62 13.8646 214.859 14.5938V18.3438C212.62 17.5104 210.25 17.0938 207.75 17.0938C204 17.0938 202.125 18.1875 202.125 20.375C202.125 22.0417 203.031 22.875 204.844 22.875H208.344C213.208 22.875 215.641 24.9583 215.641 29.125C215.641 33.8125 212.547 36.1562 206.359 36.1562C203.536 36.1562 201.005 35.7917 198.766 35.0625ZM223.297 13.6562V36H219.156V13.6562H223.297ZM227.609 35.0625V31.3125C229.849 32.1458 232.38 32.5625 235.203 32.5625C238.63 32.5625 240.344 31.4167 240.344 29.125C240.344 27.4583 239.292 26.625 237.188 26.625H233.688C229.115 26.625 226.828 24.5417 226.828 20.375C226.828 15.7917 230.083 13.5 236.594 13.5C239.094 13.5 241.464 13.8646 243.703 14.5938V18.3438C241.464 17.5104 239.094 17.0938 236.594 17.0938C232.844 17.0938 230.969 18.1875 230.969 20.375C230.969 22.0417 231.875 22.875 233.688 22.875H237.188C242.052 22.875 244.484 24.9583 244.484 29.125C244.484 33.8125 241.391 36.1562 235.203 36.1562C232.38 36.1562 229.849 35.7917 227.609 35.0625ZM262.609 13.6562V17.25H256.203V36H252.062V17.25H245.656V13.6562H262.609Z" fill="white"/>
<defs>
<clipPath id="clip0_41_593">
<rect width="44" height="44" fill="white" transform="translate(0 3)"/>
</clipPath>
</defs>
</svg>
