<svg width="1440" height="824" viewBox="0 0 1440 824" fill="none" xmlns="http://www.w3.org/2000/svg">
<g clip-path="url(#clip0_136_2)">
<mask id="mask0_136_2" style="mask-type:alpha" maskUnits="userSpaceOnUse" x="0" y="0" width="1440" height="1389">
<rect width="1440" height="1389" fill="white"/>
</mask>
<g mask="url(#mask0_136_2)">
<g style="mix-blend-mode:multiply">
<rect width="1440" height="824" fill="url(#paint0_linear_136_2)"/>
</g>
<g opacity="0.2" clip-path="url(#clip1_136_2)">
<path d="M468.146 496.47C351.877 583.412 243.882 664.093 143.186 739.422L142.713 738.143C243.152 662.87 351.207 581.985 467.424 495.079C607.987 389.967 754.551 278.46 890.064 173.684C890.064 173.684 884.457 171.295 882.872 170.14C882.872 170.14 895.695 170.962 910.094 163.45C910.094 163.45 899.176 175.644 895.49 188.768C895.49 188.768 893.85 184.158 894.271 179.969C755.617 280.312 608.461 391.538 468.142 496.466L468.146 496.47ZM420.939 598.184C409.689 603.375 399.939 602.281 399.939 602.281C401.102 603.219 405.285 605.239 405.285 605.239C345.512 647.108 283.617 698.182 223.03 743.058C224.433 742.573 225.42 741.009 227.02 740.452C286.212 696.606 349.126 648.784 408.261 610.202C407.784 613.372 408.871 616.952 408.871 616.952C412.163 607.083 420.935 598.188 420.935 598.188L420.939 598.184Z" fill="url(#paint1_linear_136_2)"/>
<path fill-rule="evenodd" clip-rule="evenodd" d="M-11.9437 705.986C88.8801 727.019 183.126 738.46 268.484 736.175C543.361 728.511 781.166 496.615 922.423 286.866C922.423 286.866 925.383 292.706 926.735 294.322C926.735 294.322 924.934 280.617 931.965 264.622C931.965 264.622 919.652 277.209 905.814 282.12C905.814 282.12 910.88 283.551 915.352 282.793C780.577 497.629 543.421 728.462 268.396 737.257C183.118 739.831 88.8961 728.875 -11.9397 708.408V705.986H-11.9437Z" fill="white"/>
<path fill-rule="evenodd" clip-rule="evenodd" d="M87.8693 746C107.017 744.493 125.816 742.649 144.285 740.48C252.858 727.621 355.651 706.103 453.796 680.287C601.426 641.444 743.489 587.068 889.699 544.549C886.587 551.063 886.583 559.461 886.583 559.461C900.135 540.392 924.818 527.004 924.818 527.004C897.211 530.812 876.969 522.081 876.969 522.081C878.858 524.863 886.526 531.946 886.526 531.946C741.676 579.187 602.28 630.072 453.002 665.263C354.3 688.541 250.873 707.049 140.948 716.164C91.3988 720.253 39.5791 721.82 -15 720.894V746.004H87.8693V746Z" fill="url(#paint2_linear_136_2)"/>
<path fill-rule="evenodd" clip-rule="evenodd" d="M864.728 364.059C869.24 359.794 873.756 355.429 878.268 350.987C921.412 312.461 960.787 255.178 1022.61 247.225C1021.03 249.514 1020.53 252.709 1020.53 252.709C1026.82 246.267 1037 242.643 1037 242.643C1026.28 242.455 1019.1 237.929 1019.1 237.929C1019.65 239.096 1022.15 242.247 1022.15 242.247C963.494 251.727 917.911 311.807 876.888 349.279C873.451 352.378 870.046 355.449 866.637 358.487L864.728 364.059Z" fill="white"/>
<path fill-rule="evenodd" clip-rule="evenodd" d="M677.884 219.117C563.532 330.263 516.681 437.596 483.977 524.418C452.175 607.692 443.4 679.859 364.828 717.667C360.593 719.704 356.189 721.66 351.636 723.54L352.274 723.656C357.179 721.624 361.932 719.519 366.509 717.343C446.027 679.47 456.11 606.425 491.71 523.111C528.196 437.733 581.396 332.844 701.668 225.868C746.906 185.541 800.659 146.189 850.931 115.235C848.432 129.317 852.848 145.351 852.848 145.351C868.678 101.814 908.746 63.2598 908.746 63.2598C858.046 85.0584 814.801 79.0375 814.801 79.0375C819.867 83.3467 838.248 92.843 838.248 92.843C781.82 130.155 726.355 171.908 677.884 219.113V219.117Z" fill="url(#paint3_linear_136_2)"/>
<path fill-rule="evenodd" clip-rule="evenodd" d="M152.091 445C156.505 445.506 160.856 446.213 165.145 447.1L165.114 447.119C164.41 446.981 164.266 446.963 163.142 446.763C163.234 446.779 163.326 446.8 163.418 446.825C162.841 446.792 162.213 446.777 161.535 446.782C159.833 446.525 159.425 446.363 158.307 446.125C156.756 445.819 156.467 445.794 156.21 445.613C154.935 445.438 152.951 445.125 152.097 445H152.091ZM168.53 447.857L169.157 448.007L169.176 448.032C169.361 448.078 169.545 448.123 169.729 448.169C170.097 448.261 170.514 448.365 170.978 448.482C171.071 448.511 171.163 448.54 171.255 448.569C170.882 448.478 170.51 448.388 170.137 448.3C170.229 448.33 170.319 448.361 170.407 448.394C169.754 448.236 169.149 448.094 168.592 447.969C168.592 447.969 168.592 447.963 168.454 447.907C167.801 447.769 167.146 447.634 166.489 447.5C166.401 447.446 166.313 447.4 166.225 447.363C166.598 447.446 166.97 447.53 167.343 447.613L168.46 447.863H168.511L168.53 447.857ZM209.885 464.709C212.17 466.091 214.412 467.547 216.616 469.048L216.39 468.897C215.913 468.577 215.433 468.264 214.952 467.96C212.873 466.691 212.176 466.172 211.335 465.634C210.602 465.193 209.864 464.755 209.118 464.322L208.999 464.234C209.334 464.418 209.667 464.605 209.998 464.797L209.872 464.722H209.878L209.885 464.709ZM221.281 472.373L221.52 472.554L221.288 472.379H221.281V472.373ZM221.74 472.711H221.721C221.438 472.511 222.066 472.967 221.168 472.31C220.704 471.979 220.584 471.885 220.007 471.467C219.521 471.154 219.071 470.879 218.657 470.641C218.732 470.7 218.807 470.76 218.883 470.823C218.286 470.423 218.173 470.335 217.564 469.96C217.401 469.86 217.196 469.735 216.949 469.585C215.963 469.004 217.162 469.779 215.781 469.01C215.747 468.893 215.747 468.81 215.781 468.76C213.771 467.831 211.628 466.951 209.351 466.122C209.535 466.36 209.719 466.601 209.903 466.847C209.351 466.672 209.326 466.71 208.535 466.378C207.618 465.997 207.071 465.516 206.506 465.091C206.54 465.032 206.575 464.974 206.613 464.916C207.224 465.178 207.796 465.416 208.327 465.628C207.637 465.124 206.902 464.601 206.123 464.059C205.073 463.613 203.978 463.153 202.839 462.678C203.476 463.082 204.112 463.49 204.748 463.903C206.205 466.453 207.166 466.203 202.971 464.478C203.021 465.259 200.359 464.034 200.937 465.016C201.1 465.291 201.301 465.209 201.979 465.991C200.166 465.282 198.35 464.588 196.529 463.909C196.487 463.993 196.445 464.074 196.403 464.153C197.261 464.682 198.117 465.216 198.971 465.753C199.076 465.749 199.141 465.722 199.166 465.672C199.204 465.793 199.281 465.939 199.398 466.109C197.962 465.505 196.527 464.909 195.091 464.322C194.768 463.938 194.406 463.534 194.004 463.109C194.155 462.997 194.264 462.872 194.331 462.734C193.385 462.146 192.437 461.565 191.486 460.99C193.709 461.771 197.182 463.19 199.461 463.909C200.943 464.391 201.835 464.197 202.142 463.928C200.164 461.94 198.594 461.621 195.078 459.846C191.643 458.208 191.367 458.502 187.053 456.427C186.752 456.423 186.494 456.439 186.281 456.477C185.377 456.21 184.519 455.966 183.706 455.745C183.635 455.658 183.566 455.575 183.499 455.495C184.336 455.67 185.128 455.831 185.873 455.977C185.885 455.943 185.898 455.908 185.91 455.87C183.717 455.041 181.513 454.231 179.298 453.439C179.286 453.472 179.229 453.495 179.129 453.508C179.28 453.658 179.382 453.797 179.437 453.926C177.904 453.497 176.368 453.076 174.828 452.664C174.576 452.859 174.323 453.062 174.068 453.27C173.252 453.07 173.27 453.02 172.165 452.807C171.705 452.724 171.198 452.634 170.646 452.539C170.612 452.672 170.577 452.807 170.539 452.945C169.189 452.614 167.205 452.539 166.137 452.876C164.454 453.458 163.205 453.408 162.169 453.714C161.258 454.12 156.787 457.058 156.781 457.877C155.462 457.827 153.321 458.927 151.821 459.402C151.011 459.621 146.898 460.846 146.125 460.859C146.41 462.442 146.682 464.076 146.942 465.759C147.268 465.772 147.553 465.784 147.796 465.797C147.595 466.168 147.433 466.543 147.312 466.922C148.135 467.216 149.516 467.916 150.238 467.947C151.285 467.993 152.333 468.043 153.384 468.097C153.736 467.372 154.213 466.678 155.563 466.753C157.039 466.847 156.015 467.041 157.918 467.485C157.826 467.968 157.694 468.447 157.522 468.922C157.87 469.235 158.255 469.554 158.677 469.879C156.455 469.398 157.39 468.929 155.82 468.835C155.695 468.829 152.21 469.46 152.185 470.473C152.239 471.21 152.289 471.954 152.335 472.704C152.649 472.717 152.961 472.731 153.271 472.748C153.325 473.411 153.338 474.069 153.309 474.723C153.409 475.065 153.47 475.405 153.491 475.742C151.804 475.805 150.09 475.869 148.348 475.936C147.331 476.999 147.155 476.574 146.42 477.161C145.818 477.699 145.868 478.33 145.045 478.918C143.771 479.849 141.918 480.087 140.286 480.649C140.415 479.428 140.581 478.224 140.782 477.036C139.907 476.736 139.067 476.438 138.264 476.142C136.409 474.425 134.59 472.742 132.807 471.092C133.33 470.058 133.904 469.037 134.528 468.029C134.368 467.999 134.207 467.968 134.044 467.935C133.01 467.947 131.936 467.964 130.823 467.985C131.12 467.435 131.421 466.889 131.727 466.347C130.044 466.701 128.33 467.064 126.584 467.435C126.622 467.935 126.622 468.439 126.584 468.947C126.515 469.635 126.164 469.635 125.617 470.216C125.772 470.187 125.927 470.162 126.082 470.141C126.22 470.896 126.358 471.658 126.496 472.429C127.095 472.204 127.736 471.975 128.418 471.742C128.238 472.525 128.058 473.315 127.878 474.111C128.627 473.961 129.416 473.811 130.245 473.661C130.576 474.315 130.942 474.973 131.344 475.636C131.118 475.565 130.927 475.492 130.773 475.417C129.831 475.996 128.859 476.586 127.859 477.186C128.093 477.39 128.328 477.59 128.562 477.786C128.077 478.203 127.56 478.626 127.011 479.055C127.606 479.251 128.2 479.451 128.795 479.655C127.941 480.776 127.068 481.906 126.176 483.043C127.269 482.702 128.366 482.356 129.466 482.006C129.333 482.097 129.196 482.191 129.058 482.287C129.448 482.895 129.797 483.508 130.107 484.125C130.379 484.125 130.62 484.127 130.829 484.131C131.214 483.352 131.601 482.579 131.991 481.812C132.974 481.637 133.96 481.462 134.948 481.287C135.442 481.554 135.934 481.82 136.424 482.087C136.958 481.462 136.424 481.349 137.805 481.349C138.299 481.354 138.795 481.36 139.293 481.368C139.302 481.126 139.31 480.883 139.319 480.637C139.603 480.637 139.923 480.639 140.279 480.643C140.258 481.131 140.271 481.62 140.317 482.112C139.25 482.508 138.19 482.906 137.14 483.306C137.207 483.456 137.274 483.604 137.341 483.75C136.026 483.412 134.743 483.079 133.491 482.75C133.642 483.4 133.824 484.052 134.038 484.706C133.494 484.769 132.949 484.833 132.405 484.9C131.915 484.704 131.461 484.504 131.043 484.3C130.021 484.492 129.035 484.681 128.085 484.869C128.043 485.223 128.001 485.577 127.959 485.931C127.959 487.332 130.672 487.332 132.38 487.438C133.067 488.309 133.774 489.186 134.502 490.07C134.632 489.982 134.76 489.895 134.885 489.807C134.898 491.153 134.906 492.514 134.911 493.889C133.68 494.393 132.46 494.902 131.25 495.414C130.025 495.033 117.825 494.001 117.655 497.521C117.605 498.652 118.359 498.746 119.087 499.177C118.706 500.044 118.333 500.909 117.969 501.771C118.379 502.317 118.783 502.869 119.181 503.428C118.783 503.47 118.386 503.511 117.988 503.553C117.963 503.999 117.942 504.443 117.925 504.884C117.85 506.128 118.321 505.941 119.388 506.191C118.71 507.391 118.892 505.835 118.836 507.566C118.853 508.158 118.844 508.762 118.811 509.379C120.343 509.204 121.898 509.027 123.476 508.847C123.903 509.535 124.958 510.867 124.977 511.554C124.901 516.68 116.531 515.967 116.431 521.656C116.381 522.681 116.613 522.281 116.927 523.581C113.417 528.344 109.285 527.207 108.808 531.188C105.448 532.014 106.635 533.033 105.342 535.539C104.249 537.602 103.232 536.558 102.799 540.415C102.284 540.419 101.754 540.44 101.21 540.477C101.185 541.832 101.151 543.192 101.109 544.559C101.894 544.759 102.66 544.603 102.66 545.553C102.606 546.753 102.545 547.966 102.478 549.191C102.483 549.9 102.495 550.6 102.516 551.292C102.46 554.242 101.599 555.349 99.7846 556.592C100.333 557.259 100.883 557.922 101.436 558.58C101.386 559.847 101.336 561.116 101.285 562.387C103.571 563.919 104.205 564.944 106.365 566.807C108.77 568.894 108.142 570.426 109.963 572.276C111.232 573.545 119.106 579.527 121.096 579.521H121.643C122.974 579.521 123.708 577.883 127.118 577.883H128.763C130.754 577.883 131.827 578.333 133.146 578.971C134.572 578.021 141.554 575.164 143.017 575.164C144.118 575.168 145.215 575.17 146.307 575.17C148.725 575.177 148.976 578.565 151.23 580.084C152.511 579.79 152.825 579.534 154.502 579.552C154.862 579.548 155.222 579.546 155.582 579.546C157.271 579.565 158.834 581.278 158.841 583.353C158.841 584.347 157.761 586.272 157.761 588.222V589.86C157.216 589.86 156.672 589.862 156.128 589.866C157.101 593.567 159.801 595.392 161.918 598.13C163.895 600.718 164.806 604.219 166.294 607.107C165.901 607.64 165.511 608.159 165.126 608.663C166.093 610.038 167.311 611.876 167.28 614.026C167.261 614.12 162.376 620.127 162.301 624.678C162.288 625.199 162.286 625.716 162.294 626.228C162.269 627.672 167.406 636.355 168.354 637.374C167.142 639.699 169.063 646.507 170.037 648.232C171.255 650.401 171.782 648.838 172.636 652.239C173.252 654.902 173.609 654.414 174.746 656.114C173.716 660.709 176.768 661.928 181.295 661.771C182.206 661.078 182.193 660.728 183.286 660.646C183.809 660.588 184.309 660.544 184.786 660.515C186.237 660.421 186.551 660.565 187.662 660.734C192.384 658.102 192.334 659.515 196.642 655.064C198.664 652.939 201.583 648.301 203.725 647.544C203.859 645.981 203.995 644.406 204.133 642.819C204.403 639.581 209.225 641.425 209.539 638.074C209.581 637.453 209.617 636.83 209.646 636.205C209.765 634.805 209.056 631.379 208.691 630.467C212.572 624.528 216.735 624.678 220.088 619.365C220.042 616.435 219.992 613.458 219.938 610.432C219.184 608.882 217.941 607.769 218.022 605.006C218.06 603.9 218.211 604.275 218.518 602.969C218.121 602.552 217.715 602.162 217.3 601.8C217.897 594.217 227.642 586.622 231.441 582.115C233.808 579.146 235.479 575.295 236.829 571.451C239.906 562.125 235.271 566.557 231.159 566.4C230.769 566.679 230.386 566.992 230.009 567.338C228.86 566.6 230.279 566.782 228.716 566.732C228.339 566.713 227.642 567.638 226.663 567.644C226.374 567.619 225.03 566.031 224.452 565.513C224.603 564.725 224.75 563.929 224.892 563.125C226.901 563.762 227.875 563.706 228.917 561.856C228.963 561.977 229.017 562.131 229.08 562.318C232.425 561.018 235.686 559.756 238.863 558.53C238.895 554.492 242.964 558.318 242.932 554.405C243.979 553.771 245.019 553.173 246.053 552.611C246.024 551.815 245.992 551.017 245.959 550.216C247.001 550.235 248.364 548.416 248.188 546.96C247.83 543.784 243.416 545.103 242.58 538.271C241.634 539.463 240.661 540.65 239.661 541.834C233.802 540.946 237.752 542.297 235.504 537.577C235.127 537.927 234.75 538.275 234.374 538.621C234.022 537.733 233.685 536.881 233.363 536.064C232.031 534.035 230.696 532.016 229.356 530.007L229.721 529.782C230.746 529.945 231.749 530.08 232.728 530.188C234.179 534.758 237.375 536.152 240.584 538.415C240.979 537.596 241.212 537.233 242.474 537.421C242.668 537.458 244.772 540.527 244.898 540.859C247.372 541.259 250.065 542.54 251.836 542.515C252.983 542.615 254.099 542.688 255.183 542.734C256.288 544.909 257.481 547.604 259.302 548.247C258.992 548.339 258.678 548.435 258.36 548.535C258.844 549.46 260.225 552.142 261.048 552.311C261.06 552.311 262.203 551.448 262.322 551.417C262.469 552.288 262.601 553.115 262.718 553.898C263.07 557.443 267.854 574.752 268.759 574.933C269.518 575.002 269.569 571.757 270.448 571.389C270.393 570.668 270.345 569.99 270.303 569.357C270.24 567.453 270.161 565.542 270.065 563.625C269.876 562.412 270.818 561.693 271.207 561.612C270.956 558.999 272.941 556.874 272.733 555.63C272.671 555.259 272.61 554.888 272.551 554.517C272.819 554.651 273.068 554.738 273.298 554.78C273.744 555.261 273.707 554.686 274.083 554.892C274.012 554.513 273.941 554.142 273.87 553.78C273.933 553.855 273.985 553.89 274.027 553.886C274.479 555.817 274.969 558.18 275.415 558.668C275.816 561.056 275.71 559.912 276.049 561.587C276.262 562.712 276.181 562.718 276.4 564.269C276.495 564.975 276.683 565.088 276.827 565.494C276.873 565.01 276.905 564.525 276.922 564.037C277.229 565.725 277.556 568.557 277.757 569.251C277.866 570.197 277.968 571.143 278.064 572.089C278.203 573.508 278.246 574.364 278.334 575.927C278.485 577.156 278.617 578.34 278.73 579.477C278.818 581.496 278.912 583.415 278.956 584.716C278.931 582.815 278.868 580.921 278.768 579.04V579.021L278.749 578.758V578.671V578.646V578.621V578.602V578.583C278.73 578.415 278.717 578.327 278.711 578.327C278.594 576.906 278.458 575.435 278.303 573.914C278.265 573.345 278.096 571.214 277.989 570.213C277.956 569.934 277.916 569.603 277.87 569.219C277.87 569.219 277.882 569.219 277.907 569.357C277.949 569.74 277.995 570.168 278.046 570.638L278.071 570.776H278.077C273.562 530.757 252.439 495.739 221.727 472.711H221.74ZM278.987 585.528C278.987 585.972 279 586.422 279 586.878C279 588.779 278.956 590.654 278.881 592.529C278.9 591.592 278.9 590.31 278.912 588.016H278.862C278.845 587.162 278.824 586.26 278.799 585.309C278.661 585.172 278.115 581.478 278.039 579.784C278.144 580.063 278.24 580.294 278.328 580.478C278.399 580.569 278.468 580.663 278.535 580.759C278.703 582.08 278.839 583.407 278.944 584.741L278.981 585.478V585.522L278.987 585.528ZM-5.97644 563.05C-2.16495 540.49 6.95248 519.737 20.0572 502.078H20.0698C20.2393 501.853 20.2833 501.79 20.5847 501.415C18.7449 504.147 18.3304 505.072 18.6193 505.278C19.2263 504.424 19.8102 503.613 20.3712 502.847C20.8568 501.905 21.3633 500.98 21.8908 500.071C22.6694 499.227 24.4653 497.189 25.0932 496.233C25.3653 495.845 25.6416 495.456 25.922 495.064C26.5186 494.264 26.2548 494.414 25.7525 494.927C26.8262 493.658 26.8639 493.62 27.8812 492.439L27.9314 492.376C29.5765 490.532 31.2594 488.719 32.9924 486.963L33.005 486.944H33.0113L33.1055 486.838L33.1243 486.813L33.1431 486.794L33.1683 486.775C33.4069 486.594 34.2546 485.863 33.5325 486.738C34.0683 486.329 34.6481 485.896 35.2718 485.438C34.9495 485.792 34.6271 486.144 34.3048 486.494C34.0871 486.815 33.838 487.169 33.5576 487.557C33.4069 487.807 33.2604 488.059 33.118 488.313C34.3425 487.532 33.2625 488.451 34.2106 487.788C34.2901 487.734 34.3697 487.682 34.4492 487.632C35.5669 486.944 37.4758 484.644 38.7505 483.312C38.9472 483.937 39.1984 484.612 39.504 485.338C39.3114 485.679 39.121 486.021 38.9326 486.363C39.188 486.225 39.4077 486.119 39.5919 486.044C39.2235 486.461 38.8551 486.879 38.4868 487.3C38.8007 487.625 39.1293 487.965 39.4726 488.319C39.7824 488.111 40.0901 487.903 40.3956 487.694C40.3622 487.928 40.3329 488.159 40.3077 488.388C42.1099 487.507 42.0094 487.407 41.6703 489.213C41.955 489.121 42.269 488.994 42.6122 488.832C43.9748 488.319 42.5745 490.932 42.3234 492.382C41.7959 493.108 41.2706 493.831 40.7473 494.551C40.9399 494.497 41.1345 494.443 41.3313 494.389C41.2517 494.685 41.1429 495.01 41.0047 495.364C41.8503 495.085 42.6959 494.814 43.5415 494.551C43.7383 495.602 43.9539 496.66 44.1883 497.727C43.8367 498.331 43.4578 498.967 43.0518 499.634C42.3904 499.717 41.731 499.8 41.0738 499.884C41.304 499.4 41.5678 498.883 41.865 498.333C40.965 499.029 40.0398 499.759 39.0896 500.521C39.2235 500.063 39.3596 499.604 39.4977 499.146C38.8865 499.296 38.2775 499.45 37.6705 499.609C37.1263 499.829 36.5842 500.052 36.0441 500.277C35.7386 500.361 35.4037 500.48 35.0395 500.634C35.4288 499.804 35.8265 498.975 36.2325 498.146C37.9028 497.152 39.2591 494.601 40.471 492.989C37.5637 494.276 37.6642 495.664 35.5544 496.464C35.0269 496.714 34.5288 496.931 34.0599 497.114C32.2389 497.871 31.0836 497.958 29.4886 499.127C29.363 499.208 25.8027 502.878 25.7211 502.99C26.7697 502.234 28.3458 500.671 29.1998 500.309C30.2484 499.752 30.3175 500.159 30.8073 500.396C30.2421 500.984 29.7063 501.54 29.1998 502.065C29.1998 502.065 29.2124 502.59 29.1119 502.684C28.9361 503.234 28.7916 503.751 28.6786 504.234C29.0009 503.913 29.3254 503.597 29.6519 503.284C29.8277 503.597 29.7398 504.04 30.4745 503.765C30.7591 503.653 31.0459 503.54 31.3347 503.428C31.2133 503.786 31.0898 504.143 30.9643 504.497C31.2364 504.368 31.5085 504.247 31.7806 504.134C32.241 503.363 32.6743 502.63 33.0804 501.934C33.3734 501.834 33.6664 501.732 33.9594 501.628C33.8673 502.015 33.7501 502.434 33.6078 502.884C33.8046 502.822 34.0013 502.757 34.1981 502.69C34.0767 503.044 33.9594 503.401 33.8464 503.759C33.3483 503.922 32.8543 504.086 32.3645 504.253C32.2473 504.607 32.1301 504.964 32.0129 505.322C29.1119 506.591 26.5123 509.804 25.7588 510.091C25.3506 510.291 25.382 509.823 25.539 509.279C25.5641 509.187 25.6143 509.056 25.6897 508.885C25.9911 507.947 26.2485 507.96 26.8953 507.266C26.4767 507.408 26.0372 507.591 25.5767 507.816C24.8546 509.123 24.0006 509.679 22.9143 510.248C22.4957 510.844 22.0519 511.477 21.5831 512.148C21.4742 512.619 21.3905 513.048 21.3319 513.436C20.66 514.461 20.5847 514.892 20.4089 515.098C19.2661 516.467 19.9254 514.805 18.6381 516.717C18.387 516.78 18.1588 516.803 17.9537 516.786C17.6104 517.536 17.2714 518.284 16.9365 519.03C16.6518 519.085 16.3944 519.097 16.1641 519.068C15.6304 520.024 13.1124 524.119 12.8926 524.925C12.6875 525.842 12.5075 526.719 12.3526 527.557C11.281 528.861 10.2407 530.14 9.23185 531.395C9.13976 531.753 9.04766 532.114 8.95556 532.476C8.72951 533.426 8.39043 533.733 8.0388 534.176C7.99693 534.556 7.96972 534.893 7.95716 535.189C7.72483 535.539 7.27273 536.246 7.20366 536.214C6.61341 536.571 6.79551 536.058 6.98389 535.089C6.50039 535.783 6.26805 536.139 5.94153 537.502C5.8913 537.677 5.85781 537.81 5.84107 537.902C5.43292 539.671 5.8913 542.159 5.61501 543.503C5.30733 545.122 5.01849 546.035 4.20847 546.497C4.31522 545.097 4.00125 545.284 3.90078 544.09C3.81287 542.747 4.15823 541.846 4.17079 540.527C3.85683 541.011 3.54287 541.49 3.22891 541.965C3.25402 541.386 3.29589 540.763 3.35449 540.096C3.07821 540.392 2.80401 540.69 2.53191 540.99C2.54866 540.602 2.56959 540.213 2.59471 539.821C2.17609 540.071 1.75748 540.373 1.33886 540.727C1.12537 541.553 0.91606 542.376 0.710939 543.197C0.656519 543.08 0.604192 542.963 0.553958 542.847C0.373954 543.084 0.2086 543.278 0.057899 543.428C0.0369682 543.224 0.0327792 542.974 0.0453377 542.678C-0.352347 543.245 -0.733286 543.82 -1.09748 544.403C-1.31516 545.132 -1.5454 545.908 -1.7882 546.728C-1.76308 546.437 -1.73587 546.147 -1.70657 545.86C-2.55426 548.141 -2.44751 548.029 -3.19474 551.073C-3.30358 551.44 -3.41033 551.806 -3.51498 552.173C-3.77452 553.282 -4.03825 554.44 -4.30617 555.649C-4.46105 556.978 -4.60547 558.403 -4.73943 559.924C-4.68082 560.128 -4.60966 560.289 -4.52594 560.406C-4.18686 560.085 -3.82476 559.772 -3.43963 559.468C-3.40823 559.33 -2.20263 555.117 -2.13355 554.986C-1.53075 553.973 -0.959338 553.967 -0.444441 553.523C-0.427697 553.815 -0.421418 554.153 -0.425604 554.536C-0.630726 554.961 -0.835844 555.388 -1.04097 555.817C-1.46167 558.574 -1.99541 559.756 -2.22146 561.418C-2.26751 561.785 -2.31565 562.154 -2.36588 562.525C-2.46635 562.691 -2.56473 562.862 -2.66101 563.037C-2.13774 562.846 -1.58726 562.66 -1.00957 562.481C-0.143039 562.081 -0.318859 562.325 0.466045 563.162C-0.161878 570.101 -1.3926 570.082 0.842802 573.751C1.24467 573.16 1.65073 572.574 2.06097 571.995C2.50889 572.041 2.96518 572.091 3.42984 572.145C3.73962 572.712 4.05777 573.274 4.38429 573.833C5.0164 572.149 5.66315 570.474 6.32456 568.807C6.56318 568.753 6.79551 568.74 7.02156 568.769C7.03412 568.603 7.04668 568.432 7.05923 568.257C7.30203 568.203 7.54692 568.151 7.79391 568.101C8.45323 568.076 8.88649 567.232 9.17533 566.113C9.59814 566.271 10.023 566.427 10.45 566.582C10.1402 567.215 9.83047 567.848 9.52069 568.482C10.0147 568.215 10.5065 567.992 10.9963 567.813C11.0675 567.234 11.1365 566.652 11.2035 566.069C12.0115 567.044 12.8403 568.011 13.6901 568.969C13.6273 569.044 13.5624 569.161 13.4954 569.319C14.1485 569.038 14.1799 568.794 14.9585 568.788C15.0673 568.726 15.1678 568.699 15.2599 568.707C16.296 568.626 15.6555 569.632 16.7041 569.532C17.0097 569.499 17.3195 569.463 17.6334 569.426C17.6502 569.105 17.6628 568.826 17.6711 568.588C18.7219 568.592 19.7935 568.563 20.8861 568.501C20.547 568.605 20.2079 568.709 19.8689 568.813C19.9317 568.938 23.2848 571.964 23.6678 572.357C25.0869 573.551 25.922 575.639 27.3851 576.983C31.5231 576.833 31.5671 576.633 34.3048 578.933C35.5983 579.934 37.9719 583.991 37.9593 586.035V586.61C37.9593 587.791 37.6391 587.804 37.1618 588.679C40.3329 588.629 46.9637 590.879 47.1961 593.692C48.364 593.43 48.0124 593.198 48.9291 593.211C49.915 593.229 49.9024 593.655 50.7061 594.267C60.4515 594.398 56.2381 598.993 63.6225 599.105C64.0621 600.062 65.1232 603.006 65.1546 604.331C65.2174 607.088 59.2019 615.583 58.0591 615.833C58.0842 618.875 58.1135 621.888 58.147 624.872C57.854 625.33 57.5526 625.768 57.2428 626.185C57.2679 626.831 57.2931 627.474 57.3182 628.116C56.5354 629.966 55.7651 631.808 55.0074 633.642C54.526 634.288 54.0488 634.932 53.5757 635.574C52.412 635.44 51.2629 635.328 50.1284 635.236C48.9731 635.086 48.4331 635.961 48.207 636.899C47.6461 636.836 47.0872 636.765 46.5305 636.686C45.0988 636.549 43.7927 638.943 43.3029 639.962C43.6734 643.087 44.226 644.269 42.9325 645.725C41.4568 647.601 42.3673 648.201 41.2559 649.751C40.0566 651.376 40.157 650.201 38.9891 652.808C38.3863 653.933 37.683 655.427 36.063 655.095C35.0792 654.887 34.0955 654.672 33.1117 654.452C33.2415 655.248 33.3525 656.01 33.4445 656.739C34.0285 657.09 34.4743 657.077 34.6627 657.846C35.3786 661.153 31.5168 661.309 28.6786 660.484C28.9465 661.455 29.2228 662.428 29.5075 663.403C28.8984 663.359 28.9109 663.509 28.1386 663.253C27.9419 663.178 27.743 663.103 27.5421 663.028C26.7886 662.753 26.7509 662.622 26.0288 662.147C26.2465 662.859 26.4662 663.57 26.6881 664.278C28.013 664.641 27.9942 663.841 28.6912 666.116C28.193 666.266 27.7242 666.445 27.2846 666.654C27.4102 667.345 27.5672 668.07 27.7556 668.829C27.6384 668.691 27.5211 668.552 27.4039 668.41C26.9435 668.76 26.5227 669.135 26.1418 669.535C26.1795 669.623 26.2444 669.744 26.3365 669.898C27.0983 670.577 27.8665 671.25 28.6409 671.917C28.733 672.196 28.8544 672.507 29.0051 672.848C29.4321 673.917 28.4965 673.973 28.1072 674.111C29.5138 677.274 27.0021 674.111 27.9691 676.193C28.4212 677.099 29.2186 678.074 29.7272 678.743C29.5765 678.747 29.4007 678.712 29.1998 678.637C30.8826 679.962 30.1794 679.837 31.6236 681.368C32.8857 682.693 33.388 682.787 34.7569 684C34.4178 683.942 34.1143 683.912 33.8464 683.912C33.679 683.808 33.5136 683.706 33.3504 683.606C31.5629 682.31 29.8403 681.01 28.1826 679.706C28.0821 679.543 27.9837 679.38 27.8874 679.218C28.1177 679.393 28.3186 679.528 28.4902 679.624C28.8042 679.849 29.1203 680.072 29.4384 680.293C28.8942 679.522 28.3563 678.745 27.8246 677.962C28.0967 678.474 28.373 678.983 28.6535 679.487C28.126 679.07 27.6007 678.649 27.0774 678.224C26.9351 677.974 26.7907 677.724 26.6441 677.474C26.8911 677.636 27.1716 677.834 27.4856 678.068C27.2888 677.743 27.0942 677.416 26.9016 677.086C26.5332 677.024 26.1753 676.953 25.8278 676.874C25.4009 676.299 24.1073 674.255 23.6427 673.542C22.2424 671.417 22.3743 672.017 21.2001 670.079C21.3508 670.2 21.4722 670.287 21.5643 670.342C21.4805 670.167 21.3968 669.996 21.3131 669.829C21.1247 669.616 20.9363 669.404 20.7479 669.191C21.0494 669.433 21.3256 669.639 21.5768 669.81C21.0808 668.948 21.0996 669.104 20.7919 668.46C20.1389 667.041 20.9866 667.635 19.3979 666.691C19.2472 666.112 19.0777 665.493 18.8893 664.834C19.4167 665.264 19.9484 665.691 20.4842 666.116C20.2289 665.499 19.9777 664.884 19.7307 664.272C19.2347 662.94 19.6491 662.828 18.9584 660.815C18.0039 660.596 18.7135 660.971 19.1153 662.684C17.7276 661.753 17.9286 660.803 17.533 659.421C16.9804 657.34 16.7167 657.021 16.8548 655.827C16.3776 654.627 15.8857 653.387 15.3792 652.107C16.4404 651.839 15.2222 642.131 13.9413 639.38C14.3243 636.793 14.0041 634.817 13.4452 631.554C13.4034 631.292 13.3636 631.031 13.3259 630.773C12.9994 628.56 13.508 628.666 13.1752 626.341C13.1626 626.166 13.1626 626.03 13.1752 625.935C12.8696 624.339 12.5745 622.74 12.2898 621.14C9.95815 618.29 7.74158 615.533 5.64013 612.87C5.66525 612.328 5.69246 611.789 5.72176 611.251C3.76264 608.369 3.53659 602.112 0.886756 598.755C0.71931 597.78 0.553957 596.759 0.390697 595.692C0.750706 595.13 1.11699 594.525 1.48956 593.88C1.24258 592.817 0.99978 591.711 0.761169 590.56C0.916057 589.302 1.07723 587.995 1.24467 586.641C1.57538 586.462 1.90817 586.285 2.24307 586.11C2.34353 583.853 3.01541 583.209 3.75008 582.315C3.3231 580.321 3.85055 578.771 3.61194 576.908C3.4424 575.177 3.01541 575.802 2.82704 572.989C2.64703 573.06 2.47122 573.131 2.29958 573.201C2.03586 573.893 1.7784 574.541 1.52724 575.145C1.91027 575.439 2.46284 575.896 1.477 576.083C0.704656 576.152 0.503724 575.464 0.258834 574.627C-0.155595 574.681 -0.557469 574.689 -0.946782 574.652C-0.896548 572.464 -1.53075 572.945 -2.17751 572.051C-1.70029 568.919 -2.71752 569.344 -2.71752 567.107C-2.85148 567.177 -2.97915 567.202 -3.10055 567.182C-3.75987 567.513 -3.50242 566.288 -4.36268 566.294C-4.63896 565.494 -4.8713 564.65 -5.05967 563.762C-5.18526 564.169 -5.46782 565.131 -5.55573 565.113C-5.8069 565.363 -6.08319 564.312 -5.97644 563.031H-5.989L-5.97644 563.05ZM35.3534 484.625C35.3032 484.744 36.1823 484.075 36.5716 483.919C36.8814 483.694 37.2246 483.435 37.6014 483.143C37.9614 482.968 38.2921 482.835 38.5935 482.743C39.6798 481.393 38.8447 481.962 38.493 482.006C39.774 481.081 38.5998 482.118 39.5291 481.449C39.7635 481.283 39.998 481.118 40.2324 480.956C40.1236 481.118 40.0545 481.251 40.0252 481.356C41.8713 479.787 43.1271 477.968 41.3878 479.243C41.438 479.155 41.4903 479.072 41.5447 478.993C41.8294 478.739 42.1141 478.482 42.3987 478.224C43.8743 477.086 42.0722 478.73 44.4395 477.099C44.632 476.886 44.8267 476.674 45.0234 476.461C45.6304 476.003 46.2039 475.573 46.7439 475.173C47.1751 474.798 47.6063 474.423 48.0375 474.048C48.004 474.007 47.9747 473.965 47.9496 473.923C47.4891 474.265 47.0684 474.582 46.6874 474.873C47.5602 474.123 47.8931 473.855 46.5242 474.898C46.4049 474.942 46.386 474.948 46.386 474.942C42.5431 477.986 38.8572 481.218 35.3472 484.625H35.3534ZM58.9068 466.103C73.506 456.902 89.8822 450.257 107.408 446.794V446.813C107.215 446.859 107.027 446.909 106.842 446.963C107.784 446.788 108.774 446.617 109.813 446.45C109.243 446.55 108.678 446.65 108.117 446.75C108.136 446.844 108.412 446.756 110.246 446.444C110.541 446.444 110.817 446.4 110.692 446.488C110.572 446.644 108.437 446.888 107.583 447.019C106.842 447.198 106.101 447.384 105.361 447.575C105.361 447.575 105.361 447.594 105.511 447.582C106.072 447.477 106.681 447.365 107.339 447.244C108.613 447.025 108.205 447.194 107.803 447.357C108.088 447.327 108.419 447.29 108.795 447.244C108.716 447.332 108.59 447.434 108.419 447.55C107.761 447.655 107.058 447.771 106.309 447.9C106.221 448.175 106.503 448.119 108.331 447.832C108.259 447.944 108.184 448.057 108.105 448.169C107.452 448.273 106.845 448.369 106.284 448.457C106.271 448.411 106.307 448.355 106.39 448.288C106.018 448.35 105.643 448.415 105.266 448.482C104.281 448.657 104.299 448.707 103.916 448.951C104.766 448.846 105.618 448.751 106.472 448.663C106.208 448.796 105.993 448.921 105.825 449.038C104.812 449.259 103.799 449.482 102.786 449.707C101.832 449.79 100.925 449.865 100.067 449.932C99.3471 450.169 98.6731 450.397 98.0452 450.613C99.7595 450.432 97.8882 451.107 100.475 450.945C101.913 450.901 103.188 450.77 102.817 451.614C102.763 451.793 102.665 451.986 102.522 452.195C101.116 452.301 100.758 452.595 99.4581 452.595C98.1394 452.545 99.119 451.882 98.152 452.064C97.0468 452.282 93.4551 453.508 92.8335 453.876C93.4698 453.714 94.1061 453.551 94.7424 453.389C95.0396 453.405 95.3368 453.422 95.634 453.439C97.3001 453.168 98.9202 452.918 100.494 452.689C100.95 452.597 101.361 452.518 101.725 452.451C101.654 452.555 101.631 452.651 101.656 452.739C99.7469 453.114 93.4237 456.158 86.887 457.564C86.4308 457.664 85.9305 457.783 85.3863 457.921C84.7333 458.521 79.9234 461.684 78.1652 462.134C77.1773 462.405 76.2312 462.663 75.327 462.909C75.0423 463.172 74.8016 463.413 74.6049 463.634C73.3993 464.097 72.1539 464.591 70.8687 465.116C70.8227 465.228 70.7348 465.359 70.605 465.509C70.9399 465.555 71.2371 465.626 71.4967 465.722C70.2534 466.303 70.0587 467.954 67.1577 468.929C67.1075 469.379 67.2519 469.348 66.9819 469.973C66.511 471.042 65.0856 472.073 64.4263 473.054C63.4048 473.463 62.4232 473.846 61.4813 474.205C61.5441 473.971 61.6467 473.713 61.789 473.429C61.3159 473.371 60.8471 473.319 60.3824 473.273C59.5368 473.644 58.7289 473.994 57.9586 474.323C58.0717 473.511 55.1142 472.661 56.3261 471.448C56.0414 471.527 55.7944 471.579 55.5851 471.604C55.7525 471.354 55.9221 471.108 56.0937 470.866C56.4202 470.341 56.056 470.316 55.2586 470.648C55.6019 470.148 55.9137 469.683 56.1942 469.254C56.1105 469.295 56.0246 469.335 55.9367 469.373C56.5437 468.752 57.1654 468.143 57.8017 467.547C58.7184 467.043 59.6394 466.543 60.5645 466.047C61.1548 465.555 61.7492 465.068 62.3478 464.584C62.0088 464.751 61.6257 464.945 61.1987 465.166C61.1862 465.416 59.9303 466.103 58.5363 466.835C58.2852 466.972 58.0319 467.108 57.7766 467.241C57.8477 467.17 57.9189 467.103 57.99 467.041C57.8226 467.128 57.6552 467.218 57.4877 467.31C57.7096 467.131 57.9335 466.951 58.1596 466.772C58.7247 466.328 58.5301 466.553 59.5661 465.778C59.8968 465.591 60.2296 465.401 60.5645 465.209C61.4373 464.722 61.8518 464.572 62.3792 464.347C62.463 464.293 62.5446 464.24 62.6241 464.19C62.3227 464.249 62.0318 464.324 61.7513 464.416C61.5839 464.503 61.4164 464.593 61.249 464.684C60.7717 464.997 60.778 465.016 60.0308 465.441C59.1705 465.953 59.1643 465.947 58.8001 466.172L58.9194 466.091L58.9068 466.103ZM204.78 590.266C204.78 589.023 205.125 588.679 206.224 588.641C207.019 588.666 207.814 588.664 208.61 588.635C207.953 590.202 207.287 591.771 206.613 593.342C205.839 593.367 205.064 593.388 204.29 593.404C204.472 591.217 204.773 592.204 204.786 590.273L204.78 590.266ZM212.384 542.972C210.845 540.696 210.619 542.678 210.016 539.759C209.47 537.271 206.984 534.789 206.067 531.689C206.799 531.426 207.513 531.141 208.208 530.832C209.769 533.387 211.318 535.943 212.855 538.502C212.716 538.59 212.578 538.673 212.44 538.752C214.738 539.596 215.385 541.565 215.957 544.266C216.729 547.829 218.242 546.791 219.806 549.51C221.828 553.061 224.076 556.98 224.346 562.5C224.164 562.362 218.211 556.649 218.161 556.574C216.735 554.586 217.244 553.911 216.176 551.985C214.92 549.766 214.424 551.335 213.696 548.416C213.125 546.172 213.514 544.666 212.377 542.978L212.384 542.972ZM234.053 510.591C233.419 510.454 233.488 510.398 232.898 509.923C232.931 509.468 232.963 509.016 232.992 508.566C233.306 508.637 233.645 508.741 234.009 508.879C234.832 511.404 233.915 508.629 235.089 510.898C234.767 510.827 234.42 510.725 234.047 510.591H234.053ZM168.636 499.49C166.784 499.383 166.137 497.827 165.365 496.546C163.939 494.351 162.458 495.608 162.388 493.751C162.363 493.614 162.368 493.483 162.401 493.358C162.25 492.114 162.828 492.245 164.272 492.251C164.452 492.78 164.662 493.32 164.9 493.87C165.327 493.608 165.756 493.349 166.187 493.095C168.68 496.083 172.222 499.165 176.479 500.427C175.964 501.515 176.014 500.071 176.102 501.665C176.173 502.39 176.24 503.113 176.303 503.834C177.873 504.434 182.13 510.817 182.739 512.186C183.384 512.169 184.031 512.154 184.68 512.142C184.458 511.6 184.234 511.06 184.008 510.523C184.389 510.152 184.745 509.762 185.075 509.354C185.318 509.429 185.561 509.508 185.804 509.591C185.921 509.07 186.036 508.547 186.149 508.022C185.538 507.818 184.927 507.614 184.316 507.41C184.278 506.997 184.238 506.583 184.196 506.166C184.046 504.753 183.75 505.81 182.991 503.903C183.832 504.232 184.673 504.568 185.515 504.909C185.808 504.801 186.103 504.691 186.4 504.578C186.145 504.003 185.917 503.443 185.716 502.897C186.813 502.984 187.916 503.076 189.025 503.172C189.159 504.18 189.282 505.191 189.395 506.203C189.697 506.22 189.996 506.241 190.293 506.266C190.105 507.12 189.908 507.972 189.703 508.823C190.331 509.035 190.93 509.233 191.499 509.416C191.637 510.312 191.74 511.185 191.807 512.036C192.61 512.123 193.391 512.196 194.149 512.254C195.411 512.348 195.273 512.673 195.662 513.698C196.587 513.777 197.512 513.865 198.438 513.961C198.576 513.348 198.4 512.673 199.229 512.748C200.302 512.861 201.382 513.855 202.117 514.373C203.427 514.132 204.742 513.902 206.061 513.686C206.479 513.836 206.925 514.011 207.398 514.211C208.001 518.555 208.572 515.924 207.147 519.768C206.619 521.187 206.695 524.219 204.905 524.05C200.12 523.625 201.426 521.831 197.05 523.8C194.488 523.133 191.932 522.489 189.383 521.868C188.598 520.687 187.518 520.824 185.339 520.631C184.108 517.18 180.014 519.218 178.35 520.168C178.56 520.997 178.742 521.812 178.897 522.612C178.112 523.093 178.2 523.506 177.057 523.437C175.845 523.369 174.765 522.387 173.942 521.843C172.925 521.797 171.914 521.758 170.909 521.725C168.052 517.843 168.517 518.305 163.575 518.093C162.702 518.049 160.988 516.267 158.841 516.03C159.487 513.811 160.869 514.542 160.794 512.842C160.762 511.96 159.751 512.492 159.745 510.979C159.695 510.341 160.247 510.729 160.662 509.179C159.615 508.866 158.569 508.549 157.522 508.229C153.679 509.898 147.72 508.472 144.593 509.11C142.427 509.579 140.003 509.554 138.264 510.291C136.945 510.842 134.075 512.398 132.794 512.398C131.67 512.404 132.116 512.229 130.666 511.948C130.766 508.572 131.419 510.46 134.314 508.71C134.641 509.729 134.49 510.085 135.878 510.085C136.65 510.085 138.006 506.053 138.013 505.991C137.969 504.778 137.717 504.753 137.498 503.759C137.992 504.08 138.479 504.399 138.961 504.716C138.982 504.245 139 503.778 139.017 503.315C139.356 503.32 139.695 503.322 140.034 503.322C139.917 502.292 139.798 501.273 139.677 500.265C139.97 500.248 140.26 500.234 140.549 500.221C140.62 500.955 140.692 501.688 140.763 502.422C141.194 502.747 141.625 503.072 142.056 503.397C142.534 503.067 143.044 502.736 143.588 502.403C143.532 499.246 144.643 500.54 144.537 498.996C144.518 497.383 144.26 498.183 144.066 496.446C144.706 496.162 145.351 495.881 146 495.602C147.683 495.981 149.363 496.362 151.042 496.746C151.017 496.529 150.96 496.308 150.872 496.083C151.919 495.85 152.972 495.616 154.031 495.383C154.42 495.97 154.772 496.552 155.086 497.127C154.477 498.233 154.59 496.777 154.627 498.39C154.734 500.021 155.004 499.208 155.236 500.99C154.759 500.978 154.251 500.961 153.711 500.94C154.037 501.921 154.301 501.959 154.301 503.134C154.368 503.884 154.403 504.624 154.408 505.353C155.421 505.241 156.436 505.134 157.453 505.034C157.587 503.855 157.744 502.69 157.924 501.54C157.886 501.346 156.995 500.496 156.712 500.171C156.779 498.333 156.863 496.521 156.963 494.733C159.148 495.383 157.673 496.22 159.444 497.927C160.938 499.396 161.949 498.59 162.778 500.859C162.878 500.738 162.954 500.607 163.004 500.465C164.724 501.423 166.432 502.382 168.128 503.34C168.069 503.49 168.01 503.64 167.952 503.79C168.454 503.661 168.927 503.522 169.371 503.372C169.471 504.543 169.561 505.716 169.641 506.891C168.293 506.983 166.951 507.085 165.616 507.197C164.616 507.118 163.619 507.039 162.627 506.96C162.648 507.422 162.667 507.887 162.684 508.354C164.701 509.141 166.715 509.937 168.724 510.742C168.854 509.733 169.005 508.737 169.176 507.754C172.077 509.085 170.526 506.822 172.561 506.178C172.502 505.582 172.471 505.001 172.467 504.434C172.09 504.388 171.738 504.359 171.412 504.347C171.403 503.918 171.391 503.488 171.374 503.059C172.538 503.447 173.674 503.826 174.784 504.197C174.489 501.965 172.385 501.403 170.206 500.827C170.173 500.402 170.141 499.979 170.112 499.559C169.647 499.534 169.155 499.502 168.636 499.465V499.49ZM240.433 503.797C240.801 504.638 241.193 505.516 241.607 506.428C241.607 507.097 241.657 508.541 240.778 508.216C240.628 508.166 239.987 507.504 239.698 507.235C239.418 507.231 239.135 507.224 238.851 507.216C238.708 506.224 238.528 505.199 238.311 504.141C239.026 504.02 239.734 503.907 240.433 503.803V503.797ZM196.321 493.433C197.485 493.974 198.678 494.543 199.901 495.139C199.859 495.839 199.811 496.548 199.756 497.264C200.388 498.385 201.012 499.506 201.627 500.627C205.119 500.277 200.604 496.658 207.36 497.677C210.274 499.911 213.177 502.178 216.07 504.478C215.969 504.578 215.871 504.68 215.774 504.784C215.716 505.172 215.655 505.557 215.592 505.941C214.267 505.991 211.486 505.991 210.173 505.622C208.635 505.184 205.922 503.803 205.37 502.759C204.447 502.847 204.44 503.028 203.216 502.822C201.703 502.647 199.128 501.796 198.626 503.865C196.646 503.395 194.651 502.924 192.642 502.453C192.554 501.357 192.485 500.277 192.435 499.215C193.724 497.231 195.017 495.308 196.315 493.445L196.321 493.433ZM223.617 499.946C226.079 500.502 226.248 498.596 227.962 499.058C228.779 499.342 229.593 499.631 230.405 499.927C230.472 500.211 230.541 500.494 230.612 500.777C231.027 502.128 230.072 501.603 228.904 501.303C228.377 501.894 227.812 502.469 227.209 503.028C227.41 503.07 227.582 503.082 227.724 503.065C228.465 503.961 229.229 504.891 230.016 505.853C230.556 506.27 231.119 506.72 231.705 507.203C232.565 511.123 233.105 512.873 235.202 514.223C234.625 516.749 237.576 518.568 233.538 517.949C232.502 517.811 228.986 515.405 228.735 514.255C228.396 512.411 229.25 513.254 228.804 510.86C229.126 510.702 229.469 510.577 229.834 510.485C228.71 509.841 224.747 504.947 224.528 503.997C224.484 503.865 224.647 503.39 224.697 503.003C224.145 502.624 223.592 502.249 223.04 501.878C223.236 501.228 223.427 500.584 223.611 499.946H223.617ZM205.163 496.577C203.254 496.27 203.762 495.02 204.88 494.864C205.018 494.87 206.801 494.826 207.681 494.858C208.39 495.839 208.02 494.795 208.233 495.67C208.359 496.446 208.17 496.121 208.114 497.114C207.101 496.906 206.117 496.729 205.163 496.583V496.577ZM191.97 468.979C192.066 469.183 192.123 469.368 192.139 469.535C191.876 469.477 191.61 469.42 191.342 469.366C190.601 468.185 188.001 466.591 191.461 467.26C192.554 468.654 192.912 467.597 193.69 469.629C193.117 469.408 192.541 469.191 191.964 468.979H191.97ZM169.741 461.221C169.838 461.192 169.978 461.175 170.162 461.171C171.091 461.73 172.058 462.301 173.063 462.884C172.954 462.947 172.845 463.007 172.737 463.065C173.344 463.157 173.909 463.236 174.432 463.303C174.675 463.674 174.878 464.03 175.041 464.372C174.733 464.922 173.81 465.703 173.848 465.997C173.817 466.103 175.022 467.31 175.355 467.51C175.744 467.151 176.132 466.801 176.517 466.46C177.015 466.843 177.469 467.214 177.879 467.572C181.138 467.597 184.284 467.335 187.637 468.397C187.738 468.593 187.798 468.772 187.819 468.935C187.388 468.852 186.995 468.785 186.639 468.735C186.66 468.902 186.681 469.07 186.702 469.241C184.228 468.816 178.57 467.16 179.072 469.11C179.148 469.402 179.179 469.677 179.167 469.935C180.24 470.266 180.975 470.466 181.157 471.354C181.572 473.323 178.375 470.979 177.716 470.617C175.28 471.198 175.82 471.917 176.266 474.623C175.516 474.819 174.769 475.021 174.024 475.23C173.283 474.848 173.239 474.586 172.272 474.492C171.544 474.423 169.93 475.23 166.96 474.961C166.487 474.919 166.016 474.878 165.547 474.836C165.187 475.278 164.829 475.721 164.473 476.167C163.217 475.486 162.64 474.942 160.894 474.811C159.965 474.761 161.126 475.342 158.665 475.342C158.631 475.117 158.6 474.89 158.571 474.661C157.951 474.628 157.334 474.592 156.718 474.555C156.31 473.598 156.241 473.973 156.147 473.217C156.065 472.348 156.718 472.017 157.378 471.685C157.792 473.236 158.665 474.217 160.963 474.505C160.879 474.163 160.835 473.832 160.831 473.511C161.3 473.54 161.771 473.575 162.244 473.617C162.269 473.834 162.259 474.042 162.213 474.242C162.527 474.267 162.841 474.29 163.155 474.311C163.155 473.99 163.152 473.673 163.148 473.361C163.291 473.452 163.429 473.546 163.563 473.642C163.965 473.321 164.329 472.994 164.655 472.661C165.58 472.561 166.51 472.463 167.443 472.367C167.895 471.198 168.297 471.985 168.203 470.992C168.09 470.183 167.973 469.385 167.851 468.597C168.433 468.656 169.015 468.714 169.597 468.772C169.94 468.481 170.244 468.183 170.508 467.879C170.688 468.145 170.828 468.402 170.928 468.647C171.179 468.672 171.472 468.704 171.807 468.741C171.95 468.279 172.13 467.829 172.347 467.391C171.286 466.11 170.752 465.222 167.632 464.603C168.297 463.424 169.001 462.294 169.741 461.215V461.221ZM175.192 458.64C176.523 458.894 177.856 459.158 179.192 459.433C179.301 459.675 179.365 459.904 179.386 460.121C178.105 460.559 176.783 461.015 175.418 461.49C174.819 460.752 174.252 460.038 173.716 459.346C174.252 459.113 174.744 458.877 175.192 458.64ZM40.9043 683.381C40.2575 682.312 39.8305 682.168 38.4114 681.475C38.5789 681.82 38.7149 682.131 38.8196 682.406C38.6354 682.335 38.4177 682.231 38.1665 682.093C38.4303 682.598 38.6668 683.069 38.8761 683.506C39.5417 683.477 40.2177 683.435 40.9043 683.381ZM247.491 671.454C247.139 671.658 246.76 671.896 246.354 672.167C246.484 671.913 246.587 671.698 246.662 671.523C246.495 671.635 246.329 671.744 246.166 671.848C245.94 672.381 245.682 672.948 245.394 673.548C245.678 673.298 245.936 673.084 246.166 672.904C246.363 672.825 246.532 672.779 246.675 672.767C246.976 672.296 247.248 671.861 247.491 671.46V671.454ZM235.498 619.096C233.488 625.439 231.426 631.704 229.312 637.893C228.546 638.205 226.148 639.624 225.978 639.649C223.624 639.931 222.801 634.911 222.97 632.648C223.14 630.86 224.779 631.023 225.018 628.172C225.034 627.681 225.036 627.216 225.024 626.778C225.128 624.853 225.231 622.909 225.331 620.946C225.44 621.055 225.547 621.165 225.652 621.278C227.602 620.052 229.536 618.821 231.454 617.583C231.774 614.952 231.937 615.833 232.917 614.658C234.531 612.789 232.427 614.414 233.733 612.157C235.799 612.689 235.636 616.189 235.498 619.09V619.096ZM270.674 577.99C270.561 576.823 270.446 575.706 270.328 574.639C270.425 573.635 270.513 572.63 270.592 571.626C271.099 572.93 271.595 574.291 272.08 575.708C272.118 576.525 272.154 577.344 272.187 578.165C271.735 578.327 271.528 578.89 271.195 578.902C271.076 578.771 270.799 578.246 270.667 577.99H270.674ZM15.4043 555.892C16.0992 555.734 16.7878 555.617 17.4702 555.542C17.376 554.636 17.5079 554.298 16.7167 554.33C16.3232 554.388 15.9339 554.453 15.5487 554.523C15.5111 554.94 15.4629 555.396 15.4043 555.892ZM9.10626 553.998C9.35325 553.973 9.61488 553.909 9.89117 553.805C9.81163 554.409 9.73628 555.013 9.66511 555.617C9.11673 555.571 8.57672 555.526 8.04508 555.48C7.90693 557.999 8.58509 556.561 9.58977 556.392C9.83675 556.363 10.0837 556.334 10.3307 556.305C10.3056 556.567 10.2826 556.826 10.2616 557.08C11.5238 556.73 10.8142 556.555 12.3149 555.749C13.621 555.042 14.2238 555.974 14.3557 554.723C14.6006 552.329 11.7184 553.098 10.6635 553.348C10.5923 553.323 10.517 553.302 10.4375 553.286C9.87861 553.411 9.91628 553.148 9.51441 552.767C9.37627 553.184 9.24022 553.596 9.10626 554.005V553.998ZM5.33873 558.099C5.85362 557.943 5.60873 557.886 6.25549 557.486C5.93525 556.33 5.7406 556.417 4.71708 556.592C4.69197 557.549 4.85523 558.261 5.33873 558.099ZM0.648143 552.948C1.28444 552.252 1.94795 551.521 2.63866 550.754C2.66378 551.046 2.6868 551.335 2.70773 551.623C3.3817 551.802 4.09544 551.948 4.84895 552.06C5.14198 552.415 5.43292 552.815 5.72176 553.261C5.60036 553.686 5.47896 554.113 5.35756 554.542C6.43759 554.263 7.54902 554.003 8.69184 553.761C8.59765 552.248 5.7406 550.079 4.60406 550.454C4.57894 548.047 1.83492 549.973 0.641867 552.954L0.648143 552.948ZM201.835 515.705C203.116 515.492 204.399 515.288 205.684 515.092C205.52 516.536 204.597 517.736 202.889 517.543C201.935 517.418 201.973 516.542 201.835 515.705ZM121.222 472.911C123.815 472.204 127.909 472.742 127.752 475.398C127.761 475.515 127.767 475.628 127.771 475.736C127.784 475.892 126.911 477.605 126.622 478.155C125.881 479.68 126.107 478.555 123.803 478.618C122.71 478.643 121.14 480.13 118.522 480.218C117.869 480.256 117.09 479.537 117.078 478.862C117.153 478.624 118.252 477.793 118.635 477.393C118.365 477.099 117.718 476.58 117.687 476.411C117.825 475.836 117.965 475.267 118.107 474.705C118.949 474.671 119.788 474.636 120.625 474.598C120.86 474.027 121.059 473.465 121.222 472.911ZM107.571 456.502C108.149 456.235 108.732 455.968 109.323 455.702C109.871 455.702 110.417 455.704 110.962 455.708C111.405 455.633 111.891 455.55 112.418 455.458C112.377 455.741 112.337 456.029 112.299 456.321C112.379 456.266 112.502 456.206 112.67 456.139C113.26 456.448 113.894 456.756 114.572 457.064C112.28 457.746 113.266 458.021 109.982 459.021C108.977 459.34 105.882 460.477 104.839 460.596C102.353 460.884 101.844 460.502 100.337 460.459C100.421 460.75 100.544 461.032 100.708 461.303C100.23 461.536 99.7532 461.767 99.276 461.996C98.8783 461.555 98.5204 461.111 98.2022 460.665C98.1771 460.265 98.1959 459.856 98.2587 459.44C97.5471 459.548 96.8375 459.661 96.1301 459.777C96.1803 459.627 96.2285 459.479 96.2745 459.333C97.1368 459.1 97.9992 458.871 98.8615 458.646C97.7815 458.767 96.6994 458.894 95.6152 459.027C96.1426 458.471 98.0452 457.277 99.2634 457.102C100.877 456.846 100.752 457.433 102.284 457.439C102.338 457.302 102.395 457.162 102.453 457.021C104.161 456.833 105.867 456.658 107.571 456.495V456.502ZM208.578 464.934C208.717 465.072 208.892 465.236 209.106 465.428C209.458 465.591 209.845 465.776 210.268 465.985C211.166 466.422 210.305 465.922 211.373 466.378C210.701 465.841 210.211 465.534 209.062 464.953C208.415 464.647 208.264 464.616 208.578 464.934Z" fill="white"/>
<path d="M610.246 586.531C551.106 628.994 486.877 586.771 427.922 548.001C395.447 526.655 364.567 506.355 337.294 502.118C295.605 495.624 261.878 526.98 242.627 650.6L242.554 650.852C227.61 690.349 205.093 721.471 176.777 746.004H173.039C202.045 721.463 225.079 690.132 240.24 650.111C259.801 524.727 294.567 493.015 337.671 499.729C365.458 504.05 396.558 524.478 429.25 545.988C487.551 584.31 548.828 622.752 606.628 581.248C672.674 533.822 668.944 473.345 695.267 414.756C695.267 414.756 685.882 415.577 682.881 415.148C682.881 415.148 700.994 406.947 715.193 386.227C715.193 386.227 709.16 410.815 713.672 431.419C713.672 431.419 708.069 426.32 705.599 420.287C678.49 475.75 667.717 545.263 610.246 586.539V586.531Z" fill="url(#paint4_linear_136_2)"/>
</g>
</g>
</g>
<defs>
<linearGradient id="paint0_linear_136_2" x1="798" y1="230.5" x2="678.336" y2="972.441" gradientUnits="userSpaceOnUse">
<stop stop-color="#09203F"/>
<stop offset="1" stop-color="#537895"/>
</linearGradient>
<linearGradient id="paint1_linear_136_2" x1="909.823" y1="121.27" x2="142.298" y2="742.653" gradientUnits="userSpaceOnUse">
<stop stop-color="white"/>
<stop offset="1" stop-color="#999999" stop-opacity="0"/>
</linearGradient>
<linearGradient id="paint2_linear_136_2" x1="942.733" y1="505.591" x2="-15" y2="778.91" gradientUnits="userSpaceOnUse">
<stop stop-color="white"/>
<stop offset="1" stop-color="#999999" stop-opacity="0"/>
</linearGradient>
<linearGradient id="paint3_linear_136_2" x1="936.597" y1="39.2746" x2="274.495" y2="723.688" gradientUnits="userSpaceOnUse">
<stop stop-color="white"/>
<stop offset="1" stop-color="#999999" stop-opacity="0"/>
</linearGradient>
<linearGradient id="paint4_linear_136_2" x1="715.711" y1="398.494" x2="173.535" y2="768.87" gradientUnits="userSpaceOnUse">
<stop stop-color="white"/>
<stop offset="1" stop-color="#999999" stop-opacity="0"/>
</linearGradient>
<clipPath id="clip0_136_2">
<rect width="1440" height="824" fill="white"/>
</clipPath>
<clipPath id="clip1_136_2">
<rect width="1052" height="682.74" fill="white" transform="translate(-15 63.2598)"/>
</clipPath>
</defs>
</svg>
