<svg width="24" height="24" viewBox="0 0 24 24" fill="none" xmlns="http://www.w3.org/2000/svg">
<path d="M20.3636 10.1818C20.3636 16.5455 12.1818 22 12.1818 22C12.1818 22 4 16.5455 4 10.1818C4 8.01187 4.86201 5.93079 6.3964 4.3964C7.93079 2.86201 10.0119 2 12.1818 2C14.3518 2 16.4328 2.86201 17.9672 4.3964C19.5016 5.93079 20.3636 8.01187 20.3636 10.1818Z" stroke="white" stroke-width="2" stroke-linecap="round" stroke-linejoin="round"/>
<path d="M12.1819 12.9091C13.6881 12.9091 14.9091 11.6881 14.9091 10.1818C14.9091 8.6756 13.6881 7.45456 12.1819 7.45456C10.6756 7.45456 9.45459 8.6756 9.45459 10.1818C9.45459 11.6881 10.6756 12.9091 12.1819 12.9091Z" stroke="white" stroke-width="2" stroke-linecap="round" stroke-linejoin="round"/>
</svg>
