<svg width="24" height="24" viewBox="0 0 24 24" fill="none" xmlns="http://www.w3.org/2000/svg">
<path d="M14.388 5.82993C15.3232 6.01239 16.1827 6.46977 16.8565 7.14353C17.5302 7.81729 17.9876 8.67678 18.1701 9.61198M14.388 2C16.331 2.21585 18.1429 3.08595 19.5261 4.46744C20.9093 5.84893 21.7817 7.65969 22 9.60241M21.0425 17.2431V20.1156C21.0436 20.3822 20.989 20.6462 20.8821 20.8905C20.7753 21.1348 20.6186 21.3541 20.4221 21.5344C20.2256 21.7147 19.9937 21.8519 19.7411 21.9374C19.4885 22.0228 19.2208 22.0545 18.9552 22.0305C16.0089 21.7104 13.1787 20.7036 10.6921 19.0911C8.37869 17.621 6.4173 15.6596 4.94724 13.3462C3.32908 10.8483 2.32206 8.00437 2.00777 5.04479C1.98384 4.78002 2.01531 4.51316 2.10017 4.26121C2.18503 4.00927 2.32141 3.77775 2.50065 3.5814C2.67989 3.38505 2.89804 3.22817 3.14123 3.12075C3.38442 3.01334 3.64731 2.95773 3.91316 2.95748H6.78561C7.25028 2.95291 7.70076 3.11746 8.05309 3.42046C8.40541 3.72346 8.63554 4.14423 8.70057 4.60435C8.82181 5.5236 9.04665 6.42618 9.37081 7.29488C9.49963 7.63758 9.52751 8.01003 9.45115 8.3681C9.37478 8.72616 9.19737 9.05483 8.93994 9.31516L7.72394 10.5312C9.08697 12.9283 11.0717 14.913 13.4688 16.2761L14.6848 15.0601C14.9452 14.8026 15.2738 14.6252 15.6319 14.5489C15.99 14.4725 16.3624 14.5004 16.7051 14.6292C17.5738 14.9533 18.4764 15.1782 19.3956 15.2994C19.8608 15.365 20.2855 15.5993 20.5892 15.9577C20.8928 16.3161 21.0542 16.7735 21.0425 17.2431Z" stroke="white" stroke-width="2" stroke-linecap="round" stroke-linejoin="round"/>
</svg>
